<?xml version="1.0" encoding="UTF-8"?>
<svg width="23px" height="23px" viewBox="0 0 23 23" version="1.1" xmlns="http://www.w3.org/2000/svg" xmlns:xlink="http://www.w3.org/1999/xlink">
    <!-- Generator: Sketch 48.2 (47327) - http://www.bohemiancoding.com/sketch -->
    <title>Group 6</title>
    <desc>Created with Sketch.</desc>
    <defs></defs>
    <g id="team_pricing_v6_socproof11" stroke="none" stroke-width="1" fill="none" fill-rule="evenodd" transform="translate(-794.000000, -729.000000)">
        <g id="Group-39" transform="translate(792.000000, 630.000000)" fill-rule="nonzero">
            <g id="Group-6" transform="translate(2.000000, 99.000000)">
                <g id="Group-5">
                    <path d="M16,15.0053953 C16,15.751814 15.351814,16.3397209 14.608,16.3397209 L1.38083721,16.3397209 C0.636651163,16.3397209 0,15.751814 0,15.0053953 L0,7.32018605 C0,7.23609302 0.0431627907,7.16651163 0.102697674,7.11069767 C0.107162791,7.10437209 0.108651163,7.09693023 0.114232558,7.09060465 C0.11944186,7.08427907 0.126883721,7.08204651 0.132837209,7.07646512 C0.136930233,7.07051163 0.14027907,7.06381395 0.146232558,7.05823256 L7.77748837,0.409302326 C7.90203482,0.301163436 8.08717448,0.301163436 8.21172093,0.409302326 L15.8426047,7.05860465 C15.8485581,7.06418605 15.8511628,7.07162791 15.8571163,7.0772093 C15.8626977,7.0827907 15.8701395,7.08539535 15.8753488,7.09134884 C15.8783256,7.09506977 15.8790698,7.09916279 15.8816744,7.10251163 C15.9493953,7.15944186 16,7.23162791 16,7.32055814 L16,15.0057674 L16,15.0053953 Z" id="Shape" fill="#FFFFFF"></path>
                    <g id="download" transform="translate(1.000000, 1.000000)" fill="#394F5A">
                        <path d="M16,15.0053953 C16,15.751814 15.351814,16.3397209 14.608,16.3397209 L1.38083721,16.3397209 C0.636651163,16.3397209 0,15.751814 0,15.0053953 L0,7.32018605 C0,7.23609302 0.0431627907,7.16651163 0.102697674,7.11069767 C0.107162791,7.10437209 0.108651163,7.09693023 0.114232558,7.09060465 C0.11944186,7.08427907 0.126883721,7.08204651 0.132837209,7.07646512 C0.136930233,7.07051163 0.14027907,7.06381395 0.146232558,7.05823256 L7.77748837,0.409302326 C7.90203482,0.301163436 8.08717448,0.301163436 8.21172093,0.409302326 L15.8426047,7.05860465 C15.8485581,7.06418605 15.8511628,7.07162791 15.8571163,7.0772093 C15.8626977,7.0827907 15.8701395,7.08539535 15.8753488,7.09134884 C15.8783256,7.09506977 15.8790698,7.09916279 15.8816744,7.10251163 C15.9493953,7.15944186 16,7.23162791 16,7.32055814 L16,15.0057674 L16,15.0053953 Z M15.3332093,15.0053953 L15.3332093,8.01004651 L11.2587907,11.5895814 L15.3008372,15.1906977 C15.319814,15.131907 15.3332093,15.0705116 15.3332093,15.0053953 Z M1.38083721,15.6725581 L14.6083721,15.6725581 C14.6772093,15.6725581 14.7434419,15.659907 14.807814,15.6424186 L8.16111628,9.72130233 C8.07702326,9.64911628 7.91181395,9.64911628 7.82362791,9.72502326 L1.18176744,15.6420465 C1.24613953,15.659907 1.312,15.6725581 1.38083721,15.6725581 Z M0.666418605,15.0053953 C0.666418605,15.067907 0.678697674,15.1270698 0.695813953,15.184 L4.72372093,11.5955349 L0.666790698,8.0212093 L0.666790698,15.0053953 L0.666418605,15.0053953 Z M7.9947907,1.10251163 L0.868837209,7.312 L5.22418605,11.1493953 L7.38790698,9.22195349 C7.73023256,8.92762791 8.25934884,8.92762791 8.5972093,9.21823256 L10.7579535,11.143814 L15.12,7.31162791 L7.9944186,1.10251163 L7.9947907,1.10251163 Z" id="Shape"></path>
                    </g>
                </g>
                <g id="Group-5" transform="translate(3.000000, 2.500000)">
                    <path d="M16,15.0053953 C16,15.751814 15.351814,16.3397209 14.608,16.3397209 L1.38083721,16.3397209 C0.636651163,16.3397209 0,15.751814 0,15.0053953 L0,7.32018605 C0,7.23609302 0.0431627907,7.16651163 0.102697674,7.11069767 C0.107162791,7.10437209 0.108651163,7.09693023 0.114232558,7.09060465 C0.11944186,7.08427907 0.126883721,7.08204651 0.132837209,7.07646512 C0.136930233,7.07051163 0.14027907,7.06381395 0.146232558,7.05823256 L7.77748837,0.409302326 C7.90203482,0.301163436 8.08717448,0.301163436 8.21172093,0.409302326 L15.8426047,7.05860465 C15.8485581,7.06418605 15.8511628,7.07162791 15.8571163,7.0772093 C15.8626977,7.0827907 15.8701395,7.08539535 15.8753488,7.09134884 C15.8783256,7.09506977 15.8790698,7.09916279 15.8816744,7.10251163 C15.9493953,7.15944186 16,7.23162791 16,7.32055814 L16,15.0057674 L16,15.0053953 Z" id="Shape" fill="#FFFFFF"></path>
                    <g id="download" transform="translate(1.000000, 1.000000)" fill="#394F5A">
                        <path d="M16,15.0053953 C16,15.751814 15.351814,16.3397209 14.608,16.3397209 L1.38083721,16.3397209 C0.636651163,16.3397209 0,15.751814 0,15.0053953 L0,7.32018605 C0,7.23609302 0.0431627907,7.16651163 0.102697674,7.11069767 C0.107162791,7.10437209 0.108651163,7.09693023 0.114232558,7.09060465 C0.11944186,7.08427907 0.126883721,7.08204651 0.132837209,7.07646512 C0.136930233,7.07051163 0.14027907,7.06381395 0.146232558,7.05823256 L7.77748837,0.409302326 C7.90203482,0.301163436 8.08717448,0.301163436 8.21172093,0.409302326 L15.8426047,7.05860465 C15.8485581,7.06418605 15.8511628,7.07162791 15.8571163,7.0772093 C15.8626977,7.0827907 15.8701395,7.08539535 15.8753488,7.09134884 C15.8783256,7.09506977 15.8790698,7.09916279 15.8816744,7.10251163 C15.9493953,7.15944186 16,7.23162791 16,7.32055814 L16,15.0057674 L16,15.0053953 Z M15.3332093,15.0053953 L15.3332093,8.01004651 L11.2587907,11.5895814 L15.3008372,15.1906977 C15.319814,15.131907 15.3332093,15.0705116 15.3332093,15.0053953 Z M1.38083721,15.6725581 L14.6083721,15.6725581 C14.6772093,15.6725581 14.7434419,15.659907 14.807814,15.6424186 L8.16111628,9.72130233 C8.07702326,9.64911628 7.91181395,9.64911628 7.82362791,9.72502326 L1.18176744,15.6420465 C1.24613953,15.659907 1.312,15.6725581 1.38083721,15.6725581 Z M0.666418605,15.0053953 C0.666418605,15.067907 0.678697674,15.1270698 0.695813953,15.184 L4.72372093,11.5955349 L0.666790698,8.0212093 L0.666790698,15.0053953 L0.666418605,15.0053953 Z M7.9947907,1.10251163 L0.868837209,7.312 L5.22418605,11.1493953 L7.38790698,9.22195349 C7.73023256,8.92762791 8.25934884,8.92762791 8.5972093,9.21823256 L10.7579535,11.143814 L15.12,7.31162791 L7.9944186,1.10251163 L7.9947907,1.10251163 Z" id="Shape"></path>
                    </g>
                </g>
                <g id="Group-5" transform="translate(6.000000, 5.000000)">
                    <path d="M16,15.0053953 C16,15.751814 15.351814,16.3397209 14.608,16.3397209 L1.38083721,16.3397209 C0.636651163,16.3397209 0,15.751814 0,15.0053953 L0,7.32018605 C0,7.23609302 0.0431627907,7.16651163 0.102697674,7.11069767 C0.107162791,7.10437209 0.108651163,7.09693023 0.114232558,7.09060465 C0.11944186,7.08427907 0.126883721,7.08204651 0.132837209,7.07646512 C0.136930233,7.07051163 0.14027907,7.06381395 0.146232558,7.05823256 L7.77748837,0.409302326 C7.90203482,0.301163436 8.08717448,0.301163436 8.21172093,0.409302326 L15.8426047,7.05860465 C15.8485581,7.06418605 15.8511628,7.07162791 15.8571163,7.0772093 C15.8626977,7.0827907 15.8701395,7.08539535 15.8753488,7.09134884 C15.8783256,7.09506977 15.8790698,7.09916279 15.8816744,7.10251163 C15.9493953,7.15944186 16,7.23162791 16,7.32055814 L16,15.0057674 L16,15.0053953 Z" id="Shape" fill="#FFFFFF"></path>
                    <g id="download" transform="translate(1.000000, 1.000000)" fill="#0375FF">
                        <path d="M16,15.0053953 C16,15.751814 15.351814,16.3397209 14.608,16.3397209 L1.38083721,16.3397209 C0.636651163,16.3397209 0,15.751814 0,15.0053953 L0,7.32018605 C0,7.23609302 0.0431627907,7.16651163 0.102697674,7.11069767 C0.107162791,7.10437209 0.108651163,7.09693023 0.114232558,7.09060465 C0.11944186,7.08427907 0.126883721,7.08204651 0.132837209,7.07646512 C0.136930233,7.07051163 0.14027907,7.06381395 0.146232558,7.05823256 L7.77748837,0.409302326 C7.90203482,0.301163436 8.08717448,0.301163436 8.21172093,0.409302326 L15.8426047,7.05860465 C15.8485581,7.06418605 15.8511628,7.07162791 15.8571163,7.0772093 C15.8626977,7.0827907 15.8701395,7.08539535 15.8753488,7.09134884 C15.8783256,7.09506977 15.8790698,7.09916279 15.8816744,7.10251163 C15.9493953,7.15944186 16,7.23162791 16,7.32055814 L16,15.0057674 L16,15.0053953 Z M15.3332093,15.0053953 L15.3332093,8.01004651 L11.2587907,11.5895814 L15.3008372,15.1906977 C15.319814,15.131907 15.3332093,15.0705116 15.3332093,15.0053953 Z M1.38083721,15.6725581 L14.6083721,15.6725581 C14.6772093,15.6725581 14.7434419,15.659907 14.807814,15.6424186 L8.16111628,9.72130233 C8.07702326,9.64911628 7.91181395,9.64911628 7.82362791,9.72502326 L1.18176744,15.6420465 C1.24613953,15.659907 1.312,15.6725581 1.38083721,15.6725581 Z M0.666418605,15.0053953 C0.666418605,15.067907 0.678697674,15.1270698 0.695813953,15.184 L4.72372093,11.5955349 L0.666790698,8.0212093 L0.666790698,15.0053953 L0.666418605,15.0053953 Z" id="Shape"></path>
                    </g>
                </g>
            </g>
        </g>
    </g>
</svg>