<?xml version="1.0" encoding="UTF-8"?>
<svg width="23px" height="23px" viewBox="0 0 23 23" version="1.1" xmlns="http://www.w3.org/2000/svg" xmlns:xlink="http://www.w3.org/1999/xlink">
    <!-- Generator: Sketch 48.2 (47327) - http://www.bohemiancoding.com/sketch -->
    <title>Group 15</title>
    <desc>Created with Sketch.</desc>
    <defs></defs>
    <g id="team_pricing_v6_socproof11" stroke="none" stroke-width="1" fill="none" fill-rule="evenodd" transform="translate(-792.000000, -679.000000)">
        <g id="Group-39" transform="translate(792.000000, 630.000000)">
            <g id="Group-19">
                <g id="Group-15" transform="translate(0.000000, 49.000000)">
                    <path d="M11.5,23 C5.14872538,23 0,17.8512746 0,11.5 C0,5.14872538 5.14872538,0 11.5,0 C17.8512746,0 23,5.14872538 23,11.5 C23,17.8512746 17.8512746,23 11.5,23 Z M11.49983,21.7900304 C17.1829508,21.7900304 21.7900304,17.1829508 21.7900304,11.49983 C21.7900304,5.81670927 17.1829508,1.20962963 11.49983,1.20962963 C5.81670927,1.20962963 1.20962963,5.81670927 1.20962963,11.49983 C1.20962963,17.1829508 5.81670927,21.7900304 11.49983,21.7900304 Z" id="Combined-Shape" fill="#3A4F5A"></path>
                    <path d="M4.62178654,11.5415559 C4.89269669,7.98029144 7.86813616,5.175 11.4987866,5.175 C15.129437,5.175 18.1048764,7.98029144 18.3757866,11.5415559 L17.1429968,11.5415559 C16.8744245,8.66184277 14.4509919,6.40778748 11.5010965,6.40778748 C8.55120115,6.40778748 6.12776857,8.66184277 5.85919627,11.5415559 L4.62178654,11.5415559 Z" id="Combined-Shape" fill="#3A4F5A"></path>
                    <path d="M4.62178654,17.8665559 C4.89269669,14.3052914 7.86813616,11.5 11.4987866,11.5 C15.129437,11.5 18.1048764,14.3052914 18.3757866,17.8665559 L17.1429968,17.8665559 C16.8744245,14.9868428 14.4509919,12.7327875 11.5010965,12.7327875 C8.55120115,12.7327875 6.12776857,14.9868428 5.85919627,17.8665559 L4.62178654,17.8665559 Z" id="Combined-Shape" fill="#3A4F5A" transform="translate(11.498787, 14.683278) scale(1, -1) translate(-11.498787, -14.683278) "></path>
                    <path d="M13.998571,8.44983006 C13.6943856,8.24941777 13.3301114,8.13278748 12.9385968,8.13278748 C11.8731705,8.13278748 11.0094718,8.99648617 11.0094718,10.0619125 C11.0094718,11.1273388 11.8731705,11.9910375 12.9385968,11.9910375 C14.0040231,11.9910375 14.8677218,11.1273388 14.8677218,10.0619125 C14.8677218,9.67039788 14.7510915,9.30612374 14.5506792,9.00193834 C15.1081578,9.68185506 15.4427218,10.551563 15.4427218,11.4994125 C15.4427218,13.6763119 13.6779962,15.4410375 11.5010968,15.4410375 C9.32419744,15.4410375 7.55947181,13.6763119 7.55947181,11.4994125 C7.55947181,9.32251311 9.32419744,7.55778748 11.5010968,7.55778748 C12.4489463,7.55778748 13.3186543,7.89235153 13.998571,8.44983006 Z" id="Combined-Shape" fill="#0375FF"></path>
                </g>
            </g>
        </g>
    </g>
</svg>