<?xml version="1.0" encoding="UTF-8"?>
<svg width="25px" height="29px" viewBox="0 0 25 29" version="1.1" xmlns="http://www.w3.org/2000/svg" xmlns:xlink="http://www.w3.org/1999/xlink">
    <!-- Generator: Sketch 48.2 (47327) - http://www.bohemiancoding.com/sketch -->
    <title>Group 6</title>
    <desc>Created with Sketch.</desc>
    <defs></defs>
    <g id="team_pricing_v6_socproof11" stroke="none" stroke-width="1" fill="none" fill-rule="evenodd" transform="translate(-1106.000000, -630.000000)">
        <g id="Group-22" transform="translate(1104.000000, 631.000000)">
            <g id="Group-20">
                <g id="Group-6" transform="translate(3.000000, 0.000000)">
                    <path d="M17.0260417,27.3327448 L5.45790636,27.3327448 C5.98947581,25.1383049 7.81024158,23.4269333 10.1012318,22.9941887 L10.1012318,21.3908437 L1,21.3908437 C0.44771525,21.3908437 2.49366311e-14,20.9431285 2.48689958e-14,20.3908437 L2.48689958e-14,9.31866146 C2.48013604e-14,8.76637671 0.44771525,8.31866146 1,8.31866146 L8.31866146,8.31866146 L8.31866146,7.13028125 L10.1012318,7.13028125 L10.1012318,4.43555261 C9.39081645,4.02459954 8.91285156,3.25649732 8.91285156,2.37676042 C8.91285156,1.06411188 9.97696344,-6.47048796e-16 11.289612,-8.8817842e-16 C12.6022605,-2.01748646e-15 13.6663724,1.06411188 13.6663724,2.37676042 C13.6663724,3.25649732 13.1884075,4.02459954 12.4779922,4.43555261 L12.4779922,7.13028125 L14.2605625,7.13028125 L14.2605625,8.31866146 L21.579224,8.31866146 C22.1315087,8.31866146 22.579224,8.76637671 22.579224,9.31866146 L22.579224,20.3908437 C22.579224,20.9431285 22.1315087,21.3908437 21.579224,21.3908437 L12.4779922,21.3908437 L12.4779922,23.0129765 C14.7240833,23.474611 16.5018624,25.1688129 17.0260417,27.3327448 Z" id="Combined-Shape" fill="#FFFFFF"></path>
                    <g id="Group">
                        <g id="robo">
                            <g id="Group-5">
                                <path d="M17.0260417,27.3327448 L5.45790636,27.3327448 C5.98947581,25.1383049 7.81024158,23.4269333 10.1012318,22.9941887 L10.1012318,21.3908437 L1,21.3908437 C0.44771525,21.3908437 2.49366311e-14,20.9431285 2.48689958e-14,20.3908437 L2.48689958e-14,9.31866146 C2.48013604e-14,8.76637671 0.44771525,8.31866146 1,8.31866146 L8.31866146,8.31866146 L8.31866146,7.13028125 L10.1012318,7.13028125 L10.1012318,4.43555261 C9.39081645,4.02459954 8.91285156,3.25649732 8.91285156,2.37676042 C8.91285156,1.06411188 9.97696344,-6.47048796e-16 11.289612,-8.8817842e-16 C12.6022605,-2.01748646e-15 13.6663724,1.06411188 13.6663724,2.37676042 C13.6663724,3.25649732 13.1884075,4.02459954 12.4779922,4.43555261 L12.4779922,7.13028125 L14.2605625,7.13028125 L14.2605625,8.31866146 L21.579224,8.31866146 C22.1315087,8.31866146 22.579224,8.76637671 22.579224,9.31866146 L22.579224,20.3908437 C22.579224,20.9431285 22.1315087,21.3908437 21.579224,21.3908437 L12.4779922,21.3908437 L12.4779922,23.0129765 C14.7240833,23.474611 16.5018624,25.1688129 17.0260417,27.3327448 Z" id="Combined-Shape" stroke="#394F5A"></path>
                                <rect id="Rectangle" fill="#0375FF" x="6.79241242" y="12.2477451" width="2.70295065" height="2.70295065" rx="1.35147532"></rect>
                                <rect id="Rectangle" fill="#0375FF" x="13.246956" y="12.2477451" width="2.70295065" height="2.70295065" rx="1.35147532"></rect>
                            </g>
                        </g>
                        <path d="M5.98241904,16.7245071 L16.4858582,16.7245071 C15.7580981,18.1963477 13.6818504,19.2585234 11.2341386,19.2585234 C8.78642688,19.2585234 6.7101792,18.1963477 5.98241904,16.7245071 Z" id="Combined-Shape" fill="#0375FF"></path>
                    </g>
                </g>
            </g>
        </g>
    </g>
</svg>