<?xml version="1.0" encoding="UTF-8"?>
<svg width="23px" height="22px" viewBox="0 0 23 22" version="1.1" xmlns="http://www.w3.org/2000/svg" xmlns:xlink="http://www.w3.org/1999/xlink">
    <!-- Generator: Sketch 48.2 (47327) - http://www.bohemiancoding.com/sketch -->
    <title>Group 10</title>
    <desc>Created with Sketch.</desc>
    <defs></defs>
    <g id="team_pricing_v6_socproof11" stroke="none" stroke-width="1" fill="none" fill-rule="evenodd" transform="translate(-1107.000000, -682.000000)">
        <g id="Group-22" transform="translate(1104.000000, 631.000000)">
            <g id="Group-10" transform="translate(3.000000, 51.000000)">
                <g id="Group-19" fill="#394E59">
                    <g id="Group-7">
                        <g id="Group-4">
                            <path d="M0.884615385,6.47058824 L0.884615385,19.6538462 C0.884615385,20.4822733 1.55618826,21.1538462 2.38461538,21.1538462 L20.6153846,21.1538462 C21.4438117,21.1538462 22.1153846,20.4822733 22.1153846,19.6538462 L22.1153846,6.47058824 L22.8235294,6.47058824 L22.8235294,19.7887155 C22.8235294,20.893285 21.9280989,21.7887155 20.8235294,21.7887155 L2.17647059,21.7887155 C1.07190109,21.7887155 0.176470588,20.893285 0.176470588,19.7887155 L0.176470588,6.47058824 L0.884615385,6.47058824 Z" id="Combined-Shape"></path>
                            <path d="M10.6911765,2.42602216 C10.2076607,2.67718026 9.88235294,3.14661365 9.88235294,3.68427371 C9.88235294,4.48651206 10.6065982,5.13685474 11.5,5.13685474 C12.3934018,5.13685474 13.1176471,4.48651206 13.1176471,3.68427371 C13.1176471,3.14661365 12.7923393,2.67718026 12.3088235,2.42602216 L12.3088235,0.330132053 L15.5441176,0.330132053 L15.5441176,2.42602216 C15.0606018,2.67718026 14.7352941,3.14661365 14.7352941,3.68427371 C14.7352941,4.48651206 15.4595394,5.13685474 16.3529412,5.13685474 C17.246343,5.13685474 17.9705882,4.48651206 17.9705882,3.68427371 C17.9705882,3.14661365 17.6452805,2.67718026 17.1617647,2.42602216 L17.1617647,0.330132053 L20.8235294,0.330132053 C21.9280989,0.330132053 22.8235294,1.22556255 22.8235294,2.33013205 L22.8235294,6.74688337 L0.176470588,6.74688337 L0.176470588,2.33013205 C0.176470588,1.22556255 1.07190109,0.330132053 2.17647059,0.330132053 L5.83823529,0.330132053 L5.83823529,2.42602216 C5.35471948,2.67718026 5.02941176,3.14661365 5.02941176,3.68427371 C5.02941176,4.48651206 5.75365702,5.13685474 6.64705882,5.13685474 C7.54046062,5.13685474 8.26470588,4.48651206 8.26470588,3.68427371 C8.26470588,3.14661365 7.93939817,2.67718026 7.45588235,2.42602216 L7.45588235,0.330132053 L10.6911765,0.330132053 L10.6911765,2.42602216 Z" id="Combined-Shape"></path>
                        </g>
                    </g>
                </g>
                <path d="M15.5860185,14.5799826 L16.6458295,15.4130749 C16.7224424,15.4593578 16.74798,15.5519236 16.7096736,15.6329187 C16.4926038,16.2345965 16.1223084,16.801562 15.6626313,17.2759618 C15.5987873,17.3453862 15.5094056,17.3685276 15.420024,17.3338154 L14.092068,16.9172693 C13.760079,17.1602546 13.3897835,17.3569569 12.9939505,17.4958056 L12.7258055,18.745444 C12.7130367,18.8264391 12.6364239,18.8958635 12.5470422,18.9074342 C12.2022844,18.9652878 11.8575266,19 11.5,19 C11.1424734,19 10.7977156,18.9652878 10.4529578,18.9074342 C10.3635761,18.8958635 10.2869633,18.8264391 10.2741945,18.745444 L10.0060495,17.4958056 C9.61021645,17.3569569 9.22715222,17.1602546 8.90793203,16.9172693 L7.57997602,17.3338154 C7.49059437,17.3685276 7.40121271,17.3453862 7.33736867,17.2759618 C6.87769159,16.801562 6.50739617,16.2345965 6.29032644,15.6329187 C6.25202001,15.5519236 6.27755763,15.4593578 6.35417048,15.4130749 L7.41398152,14.5799826 C7.3756751,14.394851 7.36290629,14.1981487 7.36290629,14.0014463 C7.36290629,13.804744 7.3756751,13.6080417 7.41398152,13.42291 L6.35417048,12.5898178 C6.27755763,12.5435349 6.25202001,12.450969 6.29032644,12.369974 C6.50739617,11.7682962 6.87769159,11.2013306 7.33736867,10.7269309 C7.40121271,10.6575065 7.49059437,10.6343651 7.57997602,10.6690772 L8.90793203,11.0856234 C9.22715222,10.8426381 9.61021645,10.6459358 10.0060495,10.5070871 L10.2741945,9.25744865 C10.2869633,9.17645357 10.3635761,9.10702922 10.4529578,9.09545849 C11.1424734,8.9681805 11.8575266,8.9681805 12.5470422,9.09545849 C12.6364239,9.10702922 12.7130367,9.17645357 12.7258055,9.25744865 L12.9939505,10.5070871 C13.3897835,10.6459358 13.760079,10.8426381 14.092068,11.0856234 L15.420024,10.6690772 C15.5094056,10.6343651 15.5987873,10.6575065 15.6626313,10.7269309 C16.1223084,11.2013306 16.4926038,11.7682962 16.7096736,12.369974 C16.74798,12.450969 16.7224424,12.5435349 16.6458295,12.5898178 L15.5860185,13.42291 C15.6243249,13.6080417 15.6370937,13.804744 15.6370937,14.0014463 C15.6370937,14.1981487 15.6243249,14.394851 15.5860185,14.5799826 Z M11.5,16 C12.6487093,16 13.5909091,15.1111111 13.5909091,14 C13.5909091,12.9012346 12.6487093,12 11.5,12 C10.3383838,12 9.40909091,12.9012346 9.40909091,14 C9.40909091,15.1111111 10.3383838,16 11.5,16 Z" id="settings" fill="#0375FF"></path>
            </g>
        </g>
    </g>
</svg>