<?xml version="1.0" encoding="UTF-8"?>
<svg width="23px" height="18px" viewBox="0 0 23 18" version="1.1" xmlns="http://www.w3.org/2000/svg" xmlns:xlink="http://www.w3.org/1999/xlink">
    <!-- Generator: Sketch 48.2 (47327) - http://www.bohemiancoding.com/sketch -->
    <title>Group 48</title>
    <desc>Created with Sketch.</desc>
    <defs></defs>
    <g id="team_pricing_v6_socproof11" stroke="none" stroke-width="1" fill="none" fill-rule="evenodd" transform="translate(-793.000000, -630.000000)">
        <g id="Group-39" transform="translate(792.000000, 630.000000)">
            <g id="Group-19">
                <g id="Group-48" transform="translate(1.000000, 0.000000)">
                    <g id="Group-2">
                        <path d="M8.95205451,1.91292312 L8.65591398,2.13061158 L8.35977344,1.91292312 C8.24900236,1.83149696 8.12595471,1.77875125 8.00148802,1.75925775 L1.07675684,0.674732587 C0.740996108,0.622147013 0.5,0.825399224 0.5,1.15412186 L0.5,15.0035842 C0.5,15.3936084 0.836310831,15.7825909 1.23148689,15.8444819 L8.15621807,16.9290071 C8.27094762,16.9469756 8.3744507,16.9350284 8.4615725,16.8982758 L8.65591398,16.8162924 L8.85025545,16.8982758 C8.93737726,16.9350284 9.04088034,16.9469756 9.15560989,16.9290071 L16.0803411,15.8444819 C16.4755171,15.7825909 16.811828,15.3936084 16.811828,15.0035842 L16.811828,1.15412186 C16.811828,0.825399224 16.5708318,0.622147013 16.2350711,0.674732587 L9.31033993,1.75925775 C9.18587324,1.77875125 9.0628256,1.83149696 8.95205451,1.91292312 Z" id="Combined-Shape" stroke="#3A4F5A"></path>
                        <path d="M10.8870968,1.58115597 L10.8870968,6.66994312 L12.5241975,4.65390625 L14.3572762,5.90631376 L14.3572762,1.0314822 L10.8870968,1.58115597 Z" id="Combined-Shape" stroke="#394F5A"></path>
                        <rect id="Rectangle-15" stroke="#3A4F5A" x="8.80968648" y="2.47849462" width="1" height="13.8387097"></rect>
                    </g>
                    <g id="Group-7" transform="translate(9.645161, 5.935484)">
                        <g id="Group-2">
                            <rect id="Rectangle-4" fill="#F3F8FE" x="1.66548727" y="3.52745556" width="11.2699997" height="3.35354837" rx="1.67677419"></rect>
                            <path d="M1.26439156,3.48629922 L3.81649145,0.934199335 C4.42197129,0.328719495 5.40364807,0.328719495 6.00912791,0.934199335 C6.61460775,1.53967917 6.61460775,2.52135596 6.00912791,3.1268358 L3.96943525,5.16652846 L5.78627375,6.98336696 C6.39175359,7.5888468 6.39175359,8.57052358 5.78627375,9.17600342 C5.18079391,9.78148326 4.19911713,9.78148326 3.59363729,9.17600342 L0.512211596,6.09457773 C-0.0932682434,5.48909789 -0.0932682434,4.50742111 0.512211596,3.90194127 C0.726838911,3.68731396 0.988736254,3.5487666 1.26439156,3.48629922 Z" id="Combined-Shape" fill="#F3F8FE"></path>
                            <path d="M4.096266,4.26939104 L10.5155793,4.26939104 C11.0325381,4.26939104 11.451616,4.68846895 11.451616,5.20542775 C11.451616,5.72238655 11.0325381,6.14146446 10.5155793,6.14146446 L4.0754906,6.14146446 L5.1354753,7.20144917 C5.50102038,7.56699424 5.50102038,8.1596599 5.1354753,8.52520498 C4.76993023,8.89075005 4.17726457,8.89075005 3.81171949,8.52520498 L1.16420787,5.87769336 C0.7986628,5.51214828 0.7986628,4.91948262 1.16420787,4.55393755 L3.81171949,1.90642593 C4.17726457,1.54088085 4.76993023,1.54088085 5.1354753,1.90642593 C5.50102038,2.271971 5.50102038,2.86463666 5.1354753,3.23018174 L4.096266,4.26939104 Z" id="Combined-Shape" fill="#0375FF"></path>
                        </g>
                    </g>
                </g>
            </g>
        </g>
    </g>
</svg>