<?xml version="1.0" encoding="UTF-8"?>
<svg width="23px" height="15px" viewBox="0 0 23 15" version="1.1" xmlns="http://www.w3.org/2000/svg" xmlns:xlink="http://www.w3.org/1999/xlink">
    <!-- Generator: Sketch 48.2 (47327) - http://www.bohemiancoding.com/sketch -->
    <title>Group 3</title>
    <desc>Created with Sketch.</desc>
    <defs></defs>
    <g id="team_pricing_v6_socproof11" stroke="none" stroke-width="1" fill="none" fill-rule="evenodd" transform="translate(-1104.000000, -733.000000)">
        <g id="Group-22" transform="translate(1104.000000, 631.000000)">
            <g id="Group-20">
                <g id="Group-12" transform="translate(0.000000, 3.000000)">
                    <g id="Group-3" transform="translate(0.000000, 99.000000)">
                        <path d="M8.16110877,12.3555391 C7.68434819,12.3555391 6.8655802,12.3616125 6.65339138,12.3631308 C5.53816637,14.269414 3.18093449,14.4185915 3.07768697,14.4235261 C3.07199318,14.4242853 3.06629938,14.4242853 3.060226,14.4242853 C2.93500893,14.4239025 2.82017789,14.3545953 2.76149146,14.2439817 C2.69910378,14.1273646 2.70852839,13.9854065 2.78578499,13.8780604 C2.79489507,13.8659136 3.65124211,12.6580695 3.72753898,11.2099472 C1.32247921,9.93074083 0,8.15010077 0,6.17776955 C0,2.77098112 3.66111135,0 8.16110877,0 C12.6611062,0 16.3222175,2.77098112 16.3222175,6.17776955 C16.3222175,9.58417839 12.6611062,12.3555391 8.16110877,12.3555391 Z M8.16110877,0.686671896 C4.03614277,0.686671896 0.680218927,3.15018799 0.680218927,6.17776955 C0.680218927,8.54259316 2.9030772,10.0256374 4.22821352,10.6990238 C4.24377656,10.7073747 4.25440498,10.7206602 4.2680701,10.7305295 C4.28704942,10.7441946 4.3071675,10.7563414 4.32311013,10.7738023 C4.33829359,10.7905041 4.34816284,10.8098631 4.35993002,10.829222 C4.37093802,10.8474421 4.38308479,10.8637643 4.39105611,10.8838824 C4.40016618,10.9081759 4.4024437,10.9339878 4.40623957,10.9597997 C4.40851708,10.9753627 4.41534964,10.9894074 4.41534964,11.0061093 L4.41497005,11.0209131 L4.41459047,11.024709 C4.41003543,12.0818573 4.03690194,13.0236113 3.73019609,13.6199416 C4.46090001,13.4377401 5.5878922,12.9822363 6.15841064,11.8605584 C6.21323741,11.7558698 6.31903936,11.6876895 6.4370271,11.681014 C6.44727593,11.6794956 6.45676559,11.674561 6.46739401,11.6741814 L6.60404514,11.6768385 C6.60556348,11.6768385 7.611088,11.6684876 8.16110877,11.6684876 C12.2860748,11.6684876 15.6419986,9.20535111 15.6419986,6.17776955 C15.6419986,3.1498084 12.2864544,0.686671896 8.16110877,0.686671896 Z" id="Shape" fill="#394E59" fill-rule="nonzero"></path>
                        <path d="M11.5372509,4.30645485 L19.2824934,4.30645485 C20.1109205,4.30645485 20.7824934,4.97802773 20.7824934,5.80645485 L20.7824934,6.91359771 C20.7824934,7.74202483 20.1109205,8.41359771 19.2824934,8.41359771 L11.5372509,8.41359771 C10.7088237,8.41359771 10.0372509,7.74202483 10.0372509,6.91359771 L10.0372509,5.80645485 C10.0372509,4.97802773 10.7088237,4.30645485 11.5372509,4.30645485 Z" id="Rectangle-4" fill="#FFFFFF"></path>
                        <path d="M18.3560472,5.12788342 L17.2618843,4.03372048 C16.8422564,3.61409266 16.8422564,2.93374154 17.2618843,2.51411371 C17.6815121,2.09448589 18.3618632,2.09448589 18.781491,2.51411371 L21.908586,5.64120865 C22.3282138,6.06083647 22.3282138,6.74118759 21.908586,7.16081542 C21.859543,7.20985836 21.8069388,7.25316952 21.7516058,7.29074892 C21.710583,7.34954454 21.6638402,7.40556118 21.6113775,7.45802391 L19.3016059,9.76779549 C18.8204242,10.2489772 18.0402745,10.2489772 17.5590927,9.76779549 C17.077911,9.28661378 17.077911,8.50646407 17.5590927,8.02528235 L17.992206,7.59216914 L12.0908223,7.59216914 C11.4103286,7.59216914 10.8586794,7.04051999 10.8586794,6.36002628 C10.8586794,5.67953257 11.4103286,5.12788342 12.0908223,5.12788342 L18.3560472,5.12788342 Z M9.22542429,5.12788342 C9.90591799,5.12788342 10.4575671,5.67953257 10.4575671,6.36002628 C10.4575671,7.04051999 9.90591799,7.59216914 9.22542429,7.59216914 C8.54493058,7.59216914 7.99328143,7.04051999 7.99328143,6.36002628 C7.99328143,5.67953257 8.54493058,5.12788342 9.22542429,5.12788342 Z M6.36002628,5.12788342 C7.04051999,5.12788342 7.59216914,5.67953257 7.59216914,6.36002628 C7.59216914,7.04051999 7.04051999,7.59216914 6.36002628,7.59216914 C5.67953257,7.59216914 5.12788342,7.04051999 5.12788342,6.36002628 C5.12788342,5.67953257 5.67953257,5.12788342 6.36002628,5.12788342 Z" id="Combined-Shape" fill="#0375FF"></path>
                    </g>
                </g>
            </g>
        </g>
    </g>
</svg>