<?xml version="1.0" encoding="UTF-8"?>
<svg width="23px" height="18px" viewBox="0 0 23 18" version="1.1" xmlns="http://www.w3.org/2000/svg" xmlns:xlink="http://www.w3.org/1999/xlink">
    <!-- Generator: Sketch 48.2 (47327) - http://www.bohemiancoding.com/sketch -->
    <title>Group 8</title>
    <desc>Created with Sketch.</desc>
    <defs></defs>
    <g id="team_pricing_v6_socproof11" stroke="none" stroke-width="1" fill="none" fill-rule="evenodd" transform="translate(-488.000000, -681.000000)">
        <g id="Group" transform="translate(488.000000, 631.000000)">
            <g id="Group-18">
                <g id="Group-9">
                    <g id="Group-8" transform="translate(0.000000, 50.000000)">
                        <rect id="Rectangle-7" fill="#394F5A" x="13.0945455" y="4.64516129" width="7.60909091" height="1"></rect>
                        <rect id="Rectangle-7" fill="#394F5A" x="13.0945455" y="7.5483871" width="7.60909091" height="1"></rect>
                        <rect id="Rectangle-7" fill="#394F5A" x="13.0945455" y="10.4516129" width="4.56545455" height="1"></rect>
                        <rect id="Rectangle-6" stroke="#394F5A" x="0.5" y="0.5" width="22" height="17"></rect>
                        <rect id="Rectangle-3" fill="#394F5A" x="1.84" y="2" width="10.12" height="14"></rect>
                        <path d="M4.02545455,12.5284457 C4.02545455,10.7209684 5.38813696,9.25571848 7.06909091,9.25571848 C8.75004486,9.25571848 10.1127273,10.7209684 10.1127273,12.5284457 L4.02545455,12.5284457 Z M7.06909091,9.25571848 C6.06051854,9.25571848 5.24290909,8.37656853 5.24290909,7.29208211 C5.24290909,6.20759569 6.06051854,5.32844575 7.06909091,5.32844575 C8.07766328,5.32844575 8.89527273,6.20759569 8.89527273,7.29208211 C8.89527273,8.37656853 8.07766328,9.25571848 7.06909091,9.25571848 Z" id="Combined-Shape" stroke="#FFFFFF"></path>
                    </g>
                </g>
            </g>
        </g>
    </g>
</svg>