<?xml version="1.0" encoding="UTF-8"?>
<svg width="23px" height="21px" viewBox="0 0 23 21" version="1.1" xmlns="http://www.w3.org/2000/svg" xmlns:xlink="http://www.w3.org/1999/xlink">
    <!-- Generator: Sketch 48.2 (47327) - http://www.bohemiancoding.com/sketch -->
    <title>Shape</title>
    <desc>Created with Sketch.</desc>
    <defs></defs>
    <g id="team_pricing_v6_socproof11" stroke="none" stroke-width="1" fill="none" fill-rule="evenodd" transform="translate(-489.000000, -631.000000)">
        <g id="Group" transform="translate(488.000000, 631.000000)" fill="#394E59" fill-rule="nonzero">
            <g id="Group-18">
                <g id="Group-9">
                    <g id="Group-13" transform="translate(1.000000, 0.000000)">
                        <path d="M11.5,17.4104651 C10.828186,17.4104651 9.67444186,17.4190233 9.37544186,17.4211628 C7.80395349,20.1073488 4.48232558,20.3175581 4.33683721,20.3245116 C4.32881395,20.3255814 4.3207907,20.3255814 4.31223256,20.3255814 C4.13578641,20.325042 3.97397543,20.2273797 3.89127907,20.0715116 C3.80336721,19.9071839 3.81664763,19.7071475 3.92551163,19.5558837 C3.93834884,19.5387674 5.14504651,17.8367674 5.25255814,15.796186 C1.86353488,13.9936279 0,11.4844884 0,8.70523256 C0,3.90465116 5.15895349,0 11.5,0 C17.8410465,0 23,3.90465116 23,8.70523256 C23,13.5052791 17.8410465,17.4104651 11.5,17.4104651 Z M11.5,0.967604651 C5.6874186,0.967604651 0.958511628,4.439 0.958511628,8.70523256 C0.958511628,12.0375581 4.0907907,14.1273488 5.95806977,15.0762326 C5.98,15.088 5.99497674,15.1067209 6.01423256,15.1206279 C6.04097674,15.1398837 6.06932558,15.157 6.0917907,15.1816047 C6.11318605,15.2051395 6.12709302,15.2324186 6.14367442,15.2596977 C6.15918605,15.2853721 6.17630233,15.3083721 6.18753488,15.3367209 C6.20037209,15.3709535 6.2035814,15.4073256 6.20893023,15.4436977 C6.21213953,15.4656279 6.22176744,15.4854186 6.22176744,15.5089535 L6.22123256,15.529814 L6.22069767,15.5351628 C6.21427907,17.024814 5.68848837,18.3518605 5.25630233,19.1921628 C6.28595349,18.9354186 7.87402326,18.2935581 8.67795349,16.7129767 C8.75521111,16.5654578 8.904299,16.4693834 9.07055814,16.4599767 C9.085,16.4578372 9.09837209,16.4508837 9.11334884,16.4503488 L9.30590698,16.454093 C9.30804651,16.454093 10.7249535,16.4423256 11.5,16.4423256 C17.3125814,16.4423256 22.0414884,12.9714651 22.0414884,8.70523256 C22.0414884,4.43846512 17.3131163,0.967604651 11.5,0.967604651 Z" id="Shape"></path>
                    </g>
                </g>
            </g>
        </g>
    </g>
</svg>