<?xml version="1.0" encoding="UTF-8"?>
<svg width="490px" height="448px" viewBox="0 0 490 448" version="1.1" xmlns="http://www.w3.org/2000/svg" xmlns:xlink="http://www.w3.org/1999/xlink">
    <!-- Generator: Sketch 47.1 (45422) - http://www.bohemiancoding.com/sketch -->
    <title>Artboard 3</title>
    <desc>Created with Sketch.</desc>
    <defs>
        <path d="M180,90 C180,139.705 139.705,180 90,180 C40.295,180 -6.11066753e-13,139.705 -6.11066753e-13,90 C-6.11066753e-13,40.295 40.295,-2.84217094e-14 90,-2.84217094e-14 C139.705,-2.84217094e-14 180,40.295 180,90" id="path-1"></path>
        <filter x="-61.7%" y="-49.4%" width="201.1%" height="201.1%" filterUnits="objectBoundingBox" id="filter-2">
            <feOffset dx="-20" dy="2" in="SourceAlpha" result="shadowOffsetOuter1"></feOffset>
            <feGaussianBlur stdDeviation="27" in="shadowOffsetOuter1" result="shadowBlurOuter1"></feGaussianBlur>
            <feColorMatrix values="0 0 0 0 0.407870961   0 0 0 0 0.407870961   0 0 0 0 0.407870961  0 0 0 0.258350317 0" type="matrix" in="shadowBlurOuter1"></feColorMatrix>
        </filter>
        <path d="M146.845632,65.1864569 C145.672559,64.4987259 144.224938,64.4987259 143.051866,65.1864569 L94.5914939,93.5792046 C93.4134296,94.2719555 92.6946108,95.5419988 92.6946108,96.9174608 L92.6946108,111.886905 C92.6946108,113.262366 93.4134296,114.53241 94.5914939,115.220141 C95.7545827,115.902852 97.1822369,115.902852 98.3503175,115.235201 C98.3603011,115.230181 98.3702847,115.225161 98.3852601,115.220141 L114.329062,105.873023 L114.329062,140.580848 C114.329062,141.95631 115.047881,143.226354 116.220953,143.914085 C116.809985,144.25544 117.463911,144.431138 118.117836,144.431138 C118.771762,144.431138 119.425687,144.25544 120.014719,143.914085 L129.544061,138.331918 C130.717134,137.644187 131.440944,136.369123 131.440944,134.998681 L131.440944,95.8431949 L146.845632,86.8123333 C148.018704,86.1246023 148.742515,84.854559 148.742515,83.479097 L148.742515,68.5196932 C148.742515,67.1442312 148.018704,65.8741879 146.845632,65.1864569" id="path-3"></path>
        <filter x="-198.0%" y="-111.6%" width="424.7%" height="328.2%" filterUnits="objectBoundingBox" id="filter-4">
            <feOffset dx="-20" dy="2" in="SourceAlpha" result="shadowOffsetOuter1"></feOffset>
            <feGaussianBlur stdDeviation="27" in="shadowOffsetOuter1" result="shadowBlurOuter1"></feGaussianBlur>
            <feColorMatrix values="0 0 0 0 0.407870961   0 0 0 0 0.407870961   0 0 0 0 0.407870961  0 0 0 0.258350317 0" type="matrix" in="shadowBlurOuter1"></feColorMatrix>
        </filter>
        <path d="M94.6079918,57.8264462 L110.015745,66.8238439 C110.096308,66.874306 110.14666,66.9600916 110.14666,67.0509235 L110.14666,78.223239 C110.14666,79.4040528 111.405464,80.1458461 112.422577,79.550393 C118.409445,76.0634598 134.517093,66.6724575 140.453609,63.2208478 C141.455617,62.6405333 141.440511,61.1973164 140.438504,60.6119557 L98.434754,36.0873607 C97.2514789,35.3960295 95.791267,35.3960295 94.6079918,36.0873607 C93.4196815,36.7786918 92.6946108,38.0553837 92.6946108,39.4380461 L92.6946108,54.4757607 C92.6946108,55.8584231 93.4196815,57.135115 94.6079918,57.8264462" id="path-5"></path>
        <filter x="-228.9%" y="-201.4%" width="475.2%" height="511.8%" filterUnits="objectBoundingBox" id="filter-6">
            <feOffset dx="-20" dy="2" in="SourceAlpha" result="shadowOffsetOuter1"></feOffset>
            <feGaussianBlur stdDeviation="27" in="shadowOffsetOuter1" result="shadowBlurOuter1"></feGaussianBlur>
            <feColorMatrix values="0 0 0 0 0.407870961   0 0 0 0 0.407870961   0 0 0 0 0.407870961  0 0 0 0.258350317 0" type="matrix" in="shadowBlurOuter1"></feColorMatrix>
        </filter>
        <path d="M86.4704495,36.0870763 C85.2875436,35.3961243 83.8277874,35.3961243 82.6448815,36.0870763 L40.6341041,60.6133519 C39.6424766,61.1933481 39.622342,62.6155998 40.6139695,63.195596 C46.5436,66.6402693 62.7519277,76.0866427 68.7067264,79.5565333 C69.7033875,80.1365295 70.9366298,79.4102733 70.9366298,78.2502809 L70.9366298,66.8873981 L85.7154032,58.2580628 C87.3664378,57.2897213 88.3832335,55.5194719 88.3832335,53.6080061 L88.3832335,39.4359241 C88.3832335,38.0540201 87.6533554,36.7780283 86.4704495,36.0870763" id="path-7"></path>
        <filter x="-228.9%" y="-201.4%" width="475.2%" height="511.8%" filterUnits="objectBoundingBox" id="filter-8">
            <feOffset dx="-20" dy="2" in="SourceAlpha" result="shadowOffsetOuter1"></feOffset>
            <feGaussianBlur stdDeviation="27" in="shadowOffsetOuter1" result="shadowBlurOuter1"></feGaussianBlur>
            <feColorMatrix values="0 0 0 0 0.407870961   0 0 0 0 0.407870961   0 0 0 0 0.407870961  0 0 0 0.258350317 0" type="matrix" in="shadowBlurOuter1"></feColorMatrix>
        </filter>
        <path d="M85.4085061,93.5792046 L36.9431426,65.1864569 C35.7750619,64.4987259 34.3274406,64.4987259 33.1543681,65.1864569 C31.9812957,65.8741879 31.257485,67.1392113 31.257485,68.5146733 L31.257485,83.479097 C31.257485,84.854559 31.9812957,86.1246023 33.1543681,86.8123333 L48.5590557,95.838175 L48.5590557,134.998681 C48.5590557,136.369123 49.2778746,137.639167 50.4509471,138.326898 L59.9852806,143.914085 C60.5743127,144.25544 61.2282382,144.431138 61.8821637,144.431138 C62.5360892,144.431138 63.1900147,144.25544 63.7790468,143.914085 C64.9471275,143.226354 65.6709381,141.95631 65.6709381,140.580848 L65.6709381,105.873023 L81.6147399,115.220141 C81.6297153,115.225161 81.6396989,115.230181 81.6496825,115.235201 C82.8177631,115.902852 84.2454173,115.897832 85.4085061,115.220141 C86.5815786,114.53241 87.3053892,113.262366 87.3053892,111.886905 L87.3053892,96.9124409 C87.3053892,95.5419988 86.5815786,94.2669356 85.4085061,93.5792046" id="path-9"></path>
        <filter x="-198.0%" y="-111.6%" width="424.7%" height="328.2%" filterUnits="objectBoundingBox" id="filter-10">
            <feOffset dx="-20" dy="2" in="SourceAlpha" result="shadowOffsetOuter1"></feOffset>
            <feGaussianBlur stdDeviation="27" in="shadowOffsetOuter1" result="shadowBlurOuter1"></feGaussianBlur>
            <feColorMatrix values="0 0 0 0 0.407870961   0 0 0 0 0.407870961   0 0 0 0 0.407870961  0 0 0 0.258350317 0" type="matrix" in="shadowBlurOuter1"></feColorMatrix>
        </filter>
        <filter x="-26.2%" y="-26.2%" width="152.4%" height="152.4%" filterUnits="objectBoundingBox" id="filter-11">
            <feGaussianBlur stdDeviation="4.80000019" in="SourceGraphic"></feGaussianBlur>
        </filter>
        <filter x="-26.2%" y="-26.2%" width="152.4%" height="152.4%" filterUnits="objectBoundingBox" id="filter-12">
            <feGaussianBlur stdDeviation="4.80000019" in="SourceGraphic"></feGaussianBlur>
        </filter>
        <filter x="-25.3%" y="-36.9%" width="150.5%" height="173.8%" filterUnits="objectBoundingBox" id="filter-13">
            <feGaussianBlur stdDeviation="4.80000019" in="SourceGraphic"></feGaussianBlur>
        </filter>
        <filter x="-25.3%" y="-36.9%" width="150.5%" height="173.8%" filterUnits="objectBoundingBox" id="filter-14">
            <feGaussianBlur stdDeviation="4.80000019" in="SourceGraphic"></feGaussianBlur>
        </filter>
    </defs>
    <g id="Page-1" stroke="none" stroke-width="1" fill="none" fill-rule="evenodd">
        <g id="Artboard-3">
            <g id="Group-5" transform="translate(72.000000, 214.000000)">
                <g id="Combined-Shape">
                    <use fill="black" fill-opacity="1" filter="url(#filter-2)" xlink:href="#path-1"></use>
                    <use fill="#000000" fill-rule="evenodd" xlink:href="#path-1"></use>
                </g>
                <g id="Fill-11">
                    <use fill="black" fill-opacity="1" filter="url(#filter-4)" xlink:href="#path-3"></use>
                    <use fill="#FFFFFF" fill-rule="evenodd" xlink:href="#path-3"></use>
                </g>
                <g id="Fill-13">
                    <use fill="black" fill-opacity="1" filter="url(#filter-6)" xlink:href="#path-5"></use>
                    <use fill="#FFFFFF" fill-rule="evenodd" xlink:href="#path-5"></use>
                </g>
                <g id="Fill-15">
                    <use fill="black" fill-opacity="1" filter="url(#filter-8)" xlink:href="#path-7"></use>
                    <use fill="#FFFFFF" fill-rule="evenodd" xlink:href="#path-7"></use>
                </g>
                <g id="Fill-17">
                    <use fill="black" fill-opacity="1" filter="url(#filter-10)" xlink:href="#path-9"></use>
                    <use fill="#FFFFFF" fill-rule="evenodd" xlink:href="#path-9"></use>
                </g>
            </g>
            <g id="Group-14" transform="translate(143.315449, 315.327819) rotate(68.000000) translate(-143.315449, -315.327819) translate(-1.684551, 184.827819)">
                <path d="M14.0369352,150.885705 C21.3356647,177.058996 36.2905168,200.043031 56.3378487,217.275843 M149.335575,249.973586 C176.870973,249.073565 202.332228,239.978501 223.356094,225.050095 M276.821473,82.6097296 C268.517742,48.0351857 246.965921,18.6116071 217.83072,0" id="Oval-11" stroke="#9A9A9A" stroke-width="7" stroke-linecap="round" stroke-linejoin="round"></path>
                <polygon id="Path-8" fill="#9A9A9A" points="147.191102 239.14954 134.191102 249.247555 147.191102 260.14954"></polygon>
                <polygon id="Path-8-Copy-2" fill="#9A9A9A" transform="translate(12.498478, 142.218720) rotate(79.000000) translate(-12.498478, -142.218720) " points="18.9984784 131.71872 5.99847844 141.816734 18.9984784 152.71872"></polygon>
                <polygon id="Path-8-Copy" fill="#9A9A9A" transform="translate(278.230225, 90.477968) rotate(-99.000000) translate(-278.230225, -90.477968) " points="284.730225 79.9779683 271.730225 90.0759828 284.730225 100.977968"></polygon>
            </g>
            <path d="M456.07384,326.722865 C456.868908,326.722865 457.293023,327.607396 456.768237,328.171095 L436.728628,349.696668 C436.035193,350.441523 434.771991,349.690958 435.183874,348.778811 L442.494165,332.589585 L430.926095,332.589585 C430.150797,332.589585 429.719954,331.743001 430.204583,331.171856 L447.886592,310.333269 C448.544524,309.557884 449.84459,310.257282 449.472912,311.186664 L443.259678,326.722865 L456.07384,326.722865 Z" id="Path-106" fill="#0176FF" fill-rule="nonzero"></path>
            <path d="M352.07384,141.722865 C352.868908,141.722865 353.293023,142.607396 352.768237,143.171095 L332.728628,164.696668 C332.035193,165.441523 330.771991,164.690958 331.183874,163.778811 L338.494165,147.589585 L326.926095,147.589585 C326.150797,147.589585 325.719954,146.743001 326.204583,146.171856 L343.886592,125.333269 C344.544524,124.557884 345.84459,125.257282 345.472912,126.186664 L339.259678,141.722865 L352.07384,141.722865 Z" id="Path-106-Copy" fill="#0176FF" fill-rule="nonzero"></path>
            <path d="M382.120927,370.42298 C382.700469,370.969129 382.74745,371.903805 382.225862,372.510638 C381.704275,373.11747 380.811632,373.166664 380.23209,372.620514 C377.265006,369.824392 377.265006,366.505252 380.178243,363.454833 C382.558759,360.962219 384.469429,359.086617 385.941633,357.802394 C388.831864,355.381329 391.758424,355.381329 394.174744,357.911432 C396.608419,360.459707 396.608419,363.366664 394.174744,365.91494 L392.057102,368.1323 C391.505775,368.709589 390.611897,368.709589 390.06057,368.1323 C389.509243,367.555011 389.509243,366.619042 390.06057,366.041753 L392.178212,363.824393 C393.509233,362.430694 393.509233,361.395677 392.178212,360.001979 C390.829835,358.590108 389.521112,358.590108 387.72734,360.092321 C386.354155,361.290528 384.500129,363.110526 382.174774,365.54538 C380.382141,367.422428 380.382141,368.784382 382.120927,370.42298 Z M384.879073,368.57702 C384.299531,368.030871 384.25255,367.096195 384.774138,366.489362 C385.295725,365.88253 386.188368,365.833336 386.76791,366.379486 C389.734994,369.175608 389.734994,372.494748 386.821757,375.545167 C384.441241,378.037781 382.530571,379.913383 381.058367,381.197606 C378.168136,383.618671 375.241576,383.618671 372.825256,381.088568 C370.391581,378.540293 370.391581,375.633336 372.825256,373.08506 L374.942898,370.8677 C375.494225,370.290411 376.388103,370.290411 376.93943,370.8677 C377.490757,371.444989 377.490757,372.380958 376.93943,372.958247 L374.821788,375.175607 C373.490767,376.569306 373.490767,377.604323 374.821788,378.998021 C376.170165,380.409892 377.478888,380.409892 379.27266,378.907679 C380.645845,377.709472 382.499871,375.889474 384.825226,373.45462 C386.617859,371.577572 386.617859,370.215618 384.879073,368.57702 Z" id="Combined-Shape" fill="#9A9A9A" fill-rule="nonzero"></path>
            <path d="M472,263.261959 C472,268.400911 468.795229,273.27221 460.93837,273.914579 L460.93837,277.126424 C460.93837,278.143508 460.111332,279 459.129225,279 C458.095427,279 457.26839,278.143508 457.26839,277.126424 L457.26839,273.968109 C452.978131,273.700456 449.5666,272.148064 446.930417,269.899772 C446.361829,269.417995 446,268.668565 446,267.865604 C446,266.473804 447.137177,265.296128 448.481113,265.296128 C449.049702,265.296128 449.5666,265.510251 449.980119,265.831435 C451.892644,267.437358 454.322068,268.722096 457.26839,269.096811 L457.26839,257.427107 C451.996024,256.035308 446.465209,254.05467 446.465209,247.309795 C446.465209,241.796128 450.858847,237.67426 457.26839,237.192483 L457.26839,233.873576 C457.26839,232.856492 458.095427,232 459.129225,232 C460.111332,232 460.93837,232.856492 460.93837,233.873576 L460.93837,237.246014 C464.246521,237.567198 467.089463,238.691344 469.467197,240.56492 C470.087475,241.046697 470.500994,241.796128 470.500994,242.65262 C470.500994,244.044419 469.415507,245.222096 468.071571,245.222096 C467.502982,245.222096 466.986083,245.007973 466.624254,244.740319 C464.918489,243.294989 463.005964,242.545558 460.93837,242.170843 L460.93837,252.609339 C466.314115,254.1082 472,256.142369 472,263.261959 Z M452,247.166667 C452,249.833333 454.603774,251.055556 458,252 L458,242 C454.377358,242.277778 452,244.277778 452,247.166667 Z M460,269 C464.392857,268.547739 466,266.085427 466,263.974874 C466,261.110553 463.375,259.954774 460,259 L460,269 Z" id="$" fill="#13CB6E"></path>
            <path d="M328,68.9407745 C328,73.2050114 325.28827,77.2471526 318.640159,77.7801822 L318.640159,80.4453303 C318.640159,81.2892938 317.940358,82 317.109344,82 C316.234592,82 315.534791,81.2892938 315.534791,80.4453303 L315.534791,77.8246014 C311.904573,77.6025057 309.017893,76.3143508 306.787276,74.4487472 C306.306163,74.0489749 306,73.4271071 306,72.76082 C306,71.6059226 306.962227,70.6287016 308.099404,70.6287016 C308.580517,70.6287016 309.017893,70.8063781 309.367793,71.0728929 C310.986083,72.405467 313.04175,73.4715262 315.534791,73.7824601 L315.534791,64.0990888 C311.073559,62.9441913 306.393638,61.3006834 306.393638,55.7038724 C306.393638,51.1287016 310.111332,47.7084282 315.534791,47.308656 L315.534791,44.5546697 C315.534791,43.7107062 316.234592,43 317.109344,43 C317.940358,43 318.640159,43.7107062 318.640159,44.5546697 L318.640159,47.3530752 C321.439364,47.61959 323.84493,48.5523918 325.856859,50.1070615 C326.38171,50.5068337 326.73161,51.1287016 326.73161,51.8394077 C326.73161,52.9943052 325.813121,53.9715262 324.675944,53.9715262 C324.194831,53.9715262 323.757455,53.7938497 323.451292,53.571754 C322.007952,52.3724374 320.389662,51.7505695 318.640159,51.4396355 L318.640159,60.1013667 C323.188867,61.3451025 328,63.0330296 328,68.9407745 Z M310,56.65 C310,59.05 311.735849,60.15 314,61 L314,52 C311.584906,52.25 310,54.05 310,56.65 Z M318,75 C320.928571,74.5929648 322,72.3768844 322,70.4773869 C322,67.8994975 320.25,66.8592965 318,66 L318,75 Z" id="$-copy" fill="#13CB6E"></path>
            <path d="M77.4511645,33.0337188 C77.9223161,33.0337188 78.1736434,33.5644376 77.8626593,33.9026572 L65.9873351,46.8180009 C65.5764105,47.2649136 64.8278467,46.8145746 65.0719252,46.2672866 L69.4039498,36.5537511 L62.548797,36.5537511 C62.0893615,36.5537511 61.8340465,36.0458008 62.1212346,35.7031135 L72.5994618,23.1999616 C72.9893473,22.7347304 73.7597568,23.1543692 73.5395031,23.7119982 L69.8575867,33.0337188 L77.4511645,33.0337188 Z" id="Path-106-Copy-2" fill="#9A9A9A" fill-rule="nonzero"></path>
            <g id="Group-Copy-2" transform="translate(391.000000, 35.000000)">
                <path d="M55,27.4936121 C55,36.352746 50.815138,44.2263149 44.3033249,49.2545213 C43.6171025,49.7856313 42.8980289,50.2948399 42.1552296,50.7584204 C42.1333289,50.7711963 42.1004778,50.7930977 42.0767521,50.8022233 C41.6241372,51.0924175 41.158747,51.3570599 40.6824064,51.6235275 L40.3830966,51.7896134 C40.240742,51.8662685 40.1075126,51.9337979 39.9633329,51.9995022 C36.2201354,53.9158785 31.991472,55 27.4945248,55 C22.8771237,55 18.5371317,53.8592998 14.7172817,51.844367 C14.6388041,51.798739 14.5731019,51.767712 14.4946244,51.722084 C14.2409411,51.5888502 13.9744823,51.4464908 13.7317494,51.3023063 C13.4324396,51.1362203 13.1440802,50.9573586 12.8557207,50.7711963 C12.8009689,50.736519 12.7571675,50.7036668 12.7005907,50.6708147 C11.9377157,50.1835075 11.2058667,49.6615231 10.4977436,49.1103368 C4.10820945,44.0711797 0,36.2651402 0,27.4936121 C0,12.3140866 12.313678,0 27.4945248,0 C42.686322,0 55,12.3140866 55,27.4936121" id="Fill-21" fill="#B4C3D8" filter="url(#filter-11)"></path>
                <path d="M44.3033249,49.2545213 C43.6171025,49.7856313 42.8980289,50.2948399 42.1552296,50.7584204 C41.6241372,51.0924175 41.158747,51.3570599 40.6824064,51.6235275 L40.3830966,51.7896134 C40.240742,51.8662685 40.1075126,51.9337979 39.9633329,51.9995022 C36.2201354,53.9158785 31.991472,55 27.4945248,55 C22.8771237,55 18.5371317,53.8592998 14.7172817,51.844367 C14.6388041,51.798739 14.5731019,51.767712 14.4946244,51.722084 C14.2409411,51.5888502 13.9744823,51.4464908 13.7317494,51.3023063 C13.4324396,51.1362203 13.1440802,50.9573586 12.8557207,50.7711963 C12.8009689,50.736519 12.7571675,50.7036668 12.7005907,50.6708147 C11.9377157,50.1835075 11.2058667,49.6615231 10.4977436,49.1103368 C4.10820945,44.0711797 0,36.2651402 0,27.4936121 C0,12.3140866 12.313678,0 27.4945248,0 C42.686322,0 55,12.3140866 55,27.4936121 C55,36.352746 50.815138,44.2263149 44.3033249,49.2545213 Z" id="Fill-21" fill="#FFFFFF"></path>
                <path d="M41.9102082,49.8834875 C41.3725511,50.2076363 40.9014084,50.4644755 40.4191799,50.723086 L40.1161705,50.8842747 C39.9720562,50.9586696 39.8371801,51.0242078 39.6912182,51.0879748 C35.9017523,52.9478449 31.62082,54 27.0682876,54 C22.3938125,54 18.0001753,52.8929345 14.1331095,50.9374139 C14.0536619,50.8931313 13.9871476,50.8630191 13.9077,50.8187365 C13.6508811,50.6894312 13.3811287,50.5512694 13.1353955,50.4113364 C12.832386,50.2501476 12.5404622,50.0765597 12.2485385,49.8958866 C12.1931099,49.8622318 12.1487671,49.8303484 12.0914909,49.7984649 C11.3191863,49.3255265 15.3616052,39 27.0682876,39 C38.77497,39 42.662189,49.4335761 41.9102082,49.8834875 Z" id="Fill-21" fill="#0176FF"></path>
                <path d="M27.4134469,44 L26.5865531,44 C25.1645878,44 24,42.8355539 24,41.4119365 L24,36.5862384 C24,35.1644461 25.1645878,34 26.5865531,34 L27.4134469,34 C28.8354122,34 30,35.1644461 30,36.5862384 L30,41.4119365 C30,42.8355539 28.8354122,44 27.4134469,44" id="Fill-25" fill="#CBD9EC"></path>
                <path d="M37,18 L37,28.588128 C37,33.7673019 32.7276691,38 27.5,38 C22.2815346,38 18,33.7673019 18,28.588128 L18,18 L37,18 Z" id="Fill-27" fill="#B4C3D8"></path>
                <path d="M18,16.439759 C18,13.4334839 20.4295519,11 23.4288419,11 L41,11 C41,14.4543173 39.8695961,16.3852912 38.1857842,17.3077309 C37.3021458,17.7909137 36.2660934,18 35.1556485,18 L27.2174187,18 L18,18 L18,16.439759 Z" id="Fill-29" fill="#0176FF"></path>
            </g>
            <g id="Group-Copy-3" transform="translate(203.000000, 91.000000)">
                <path d="M55,27.4936121 C55,36.352746 50.815138,44.2263149 44.3033249,49.2545213 C43.6171025,49.7856313 42.8980289,50.2948399 42.1552296,50.7584204 C42.1333289,50.7711963 42.1004778,50.7930977 42.0767521,50.8022233 C41.6241372,51.0924175 41.158747,51.3570599 40.6824064,51.6235275 L40.3830966,51.7896134 C40.240742,51.8662685 40.1075126,51.9337979 39.9633329,51.9995022 C36.2201354,53.9158785 31.991472,55 27.4945248,55 C22.8771237,55 18.5371317,53.8592998 14.7172817,51.844367 C14.6388041,51.798739 14.5731019,51.767712 14.4946244,51.722084 C14.2409411,51.5888502 13.9744823,51.4464908 13.7317494,51.3023063 C13.4324396,51.1362203 13.1440802,50.9573586 12.8557207,50.7711963 C12.8009689,50.736519 12.7571675,50.7036668 12.7005907,50.6708147 C11.9377157,50.1835075 11.2058667,49.6615231 10.4977436,49.1103368 C4.10820945,44.0711797 0,36.2651402 0,27.4936121 C0,12.3140866 12.313678,0 27.4945248,0 C42.686322,0 55,12.3140866 55,27.4936121" id="Fill-21" fill="#B4C3D8" filter="url(#filter-12)"></path>
                <path d="M44.3033249,49.2545213 C43.6171025,49.7856313 42.8980289,50.2948399 42.1552296,50.7584204 C41.6241372,51.0924175 41.158747,51.3570599 40.6824064,51.6235275 L40.3830966,51.7896134 C40.240742,51.8662685 40.1075126,51.9337979 39.9633329,51.9995022 C36.2201354,53.9158785 31.991472,55 27.4945248,55 C22.8771237,55 18.5371317,53.8592998 14.7172817,51.844367 C14.6388041,51.798739 14.5731019,51.767712 14.4946244,51.722084 C14.2409411,51.5888502 13.9744823,51.4464908 13.7317494,51.3023063 C13.4324396,51.1362203 13.1440802,50.9573586 12.8557207,50.7711963 C12.8009689,50.736519 12.7571675,50.7036668 12.7005907,50.6708147 C11.9377157,50.1835075 11.2058667,49.6615231 10.4977436,49.1103368 C4.10820945,44.0711797 0,36.2651402 0,27.4936121 C0,12.3140866 12.313678,0 27.4945248,0 C42.686322,0 55,12.3140866 55,27.4936121 C55,36.352746 50.815138,44.2263149 44.3033249,49.2545213 Z" id="Fill-21" fill="#FFFFFF"></path>
                <path d="M41.9102082,49.8834875 C41.3725511,50.2076363 40.9014084,50.4644755 40.4191799,50.723086 L40.1161705,50.8842747 C39.9720562,50.9586696 39.8371801,51.0242078 39.6912182,51.0879748 C35.9017523,52.9478449 31.62082,54 27.0682876,54 C22.3938125,54 18.0001753,52.8929345 14.1331095,50.9374139 C14.0536619,50.8931313 13.9871476,50.8630191 13.9077,50.8187365 C13.6508811,50.6894312 13.3811287,50.5512694 13.1353955,50.4113364 C12.832386,50.2501476 12.5404622,50.0765597 12.2485385,49.8958866 C12.1931099,49.8622318 12.1487671,49.8303484 12.0914909,49.7984649 C11.3191863,49.3255265 15.3616052,39 27.0682876,39 C38.77497,39 42.662189,49.4335761 41.9102082,49.8834875 Z" id="Fill-21" fill="#0176FF"></path>
                <path d="M27.4134469,44 L26.5865531,44 C25.1645878,44 24,42.8355539 24,41.4119365 L24,36.5862384 C24,35.1644461 25.1645878,34 26.5865531,34 L27.4134469,34 C28.8354122,34 30,35.1644461 30,36.5862384 L30,41.4119365 C30,42.8355539 28.8354122,44 27.4134469,44" id="Fill-25" fill="#CBD9EC"></path>
                <path d="M37,18 L37,28.588128 C37,33.7673019 32.7276691,38 27.5,38 C22.2815346,38 18,33.7673019 18,28.588128 L18,18 L37,18 Z" id="Fill-27" fill="#B4C3D8"></path>
                <path d="M18,16.439759 C18,13.4334839 20.4295519,11 23.4288419,11 L41,11 C41,14.4543173 39.8695961,16.3852912 38.1857842,17.3077309 C37.3021458,17.7909137 36.2660934,18 35.1556485,18 L27.2174187,18 L18,18 L18,16.439759 Z" id="Fill-29" fill="#0176FF"></path>
            </g>
            <g id="Group-16" transform="translate(421.000000, 129.000000)">
                <path d="M52.6569193,0 L4.36655684,0 C1.96495058,0 0,1.93453137 0,4.29664734 L0,27.8507802 C0,30.2105849 1.94382208,32.1266261 4.34308072,32.1266261 L48.1471582,32.1266261 L54.5655272,38.5773753 C55.4552718,39.471836 57,38.8524162 57,37.5997089 L57,32.1266261 L57,27.7352168 L57,4.27584592 C57,1.91372996 55.0538303,0 52.6569193,0" id="Fill-1" fill="#B4C3D8" filter="url(#filter-13)"></path>
                <path d="M52.6569193,0 L4.36655684,0 C1.96495058,0 0,1.93453137 0,4.29664734 L0,27.8507802 C0,30.2105849 1.94382208,32.1266261 4.34308072,32.1266261 L48.1471582,32.1266261 L54.5655272,38.5773753 C55.4552718,39.471836 57,38.8524162 57,37.5997089 L57,32.1266261 L57,27.7352168 L57,4.27584592 C57,1.91372996 55.0538303,0 52.6569193,0" id="Fill-1-Copy" fill="#FFFFFF"></path>
                <path d="M19,18.4986827 C19,20.4324426 17.4330324,22 15.5,22 C13.5669676,22 12,20.4324426 12,18.4986827 C12,16.5675574 13.5669676,15 15.5,15 C17.4330324,15 19,16.5675574 19,18.4986827" id="Fill-23" fill="#0176FF"></path>
                <path d="M33,18.4986827 C33,20.4324426 31.4324426,22 29.4986827,22 C27.5649228,22 26,20.4324426 26,18.4986827 C26,16.5675574 27.5649228,15 29.4986827,15 C31.4324426,15 33,16.5675574 33,18.4986827" id="Fill-25" fill="#0176FF"></path>
                <path d="M46,18.4986827 C46,20.4324426 44.4324426,22 42.4986827,22 C40.5649228,22 39,20.4324426 39,18.4986827 C39,16.5675574 40.5649228,15 42.4986827,15 C44.4324426,15 46,16.5675574 46,18.4986827" id="Fill-27" fill="#0176FF"></path>
            </g>
            <g id="Group-16-Copy" transform="translate(178.657725, 36.159191) scale(-1, 1) translate(-178.657725, -36.159191) translate(150.157725, 16.659191)">
                <path d="M52.6569193,0 L4.36655684,0 C1.96495058,0 0,1.93453137 0,4.29664734 L0,27.8507802 C0,30.2105849 1.94382208,32.1266261 4.34308072,32.1266261 L48.1471582,32.1266261 L54.5655272,38.5773753 C55.4552718,39.471836 57,38.8524162 57,37.5997089 L57,32.1266261 L57,27.7352168 L57,4.27584592 C57,1.91372996 55.0538303,0 52.6569193,0" id="Fill-1" fill="#B4C3D8" filter="url(#filter-14)"></path>
                <path d="M52.6569193,0 L4.36655684,0 C1.96495058,0 0,1.93453137 0,4.29664734 L0,27.8507802 C0,30.2105849 1.94382208,32.1266261 4.34308072,32.1266261 L48.1471582,32.1266261 L54.5655272,38.5773753 C55.4552718,39.471836 57,38.8524162 57,37.5997089 L57,32.1266261 L57,27.7352168 L57,4.27584592 C57,1.91372996 55.0538303,0 52.6569193,0" id="Fill-1-Copy" fill="#FFFFFF"></path>
                <path d="M19,18.4986827 C19,20.4324426 17.4330324,22 15.5,22 C13.5669676,22 12,20.4324426 12,18.4986827 C12,16.5675574 13.5669676,15 15.5,15 C17.4330324,15 19,16.5675574 19,18.4986827" id="Fill-23" fill="#0176FF"></path>
                <path d="M33,18.4986827 C33,20.4324426 31.4324426,22 29.4986827,22 C27.5649228,22 26,20.4324426 26,18.4986827 C26,16.5675574 27.5649228,15 29.4986827,15 C31.4324426,15 33,16.5675574 33,18.4986827" id="Fill-25" fill="#0176FF"></path>
                <path d="M46,18.4986827 C46,20.4324426 44.4324426,22 42.4986827,22 C40.5649228,22 39,20.4324426 39,18.4986827 C39,16.5675574 40.5649228,15 42.4986827,15 C44.4324426,15 46,16.5675574 46,18.4986827" id="Fill-27" fill="#0176FF"></path>
            </g>
            <path d="M393.156262,199.41204 C391.32034,199.854495 389.707136,198.242693 390.151068,196.405149 C390.360243,195.542812 391.067524,194.835485 391.931311,194.627802 C393.765728,194.186851 395.375922,195.800158 394.933495,197.633188 C394.725825,198.49703 394.018544,199.202851 393.156262,199.41204 M392.542282,188 C387.272282,188 383,192.274059 383,197.542891 C383,201.67699 388.870437,209.374812 391.401602,212.503604 C391.99,213.230495 393.094563,213.230495 393.682961,212.503604 C396.214126,209.374812 402.084563,201.67699 402.084563,197.542891 C402.084563,192.272554 397.812282,188 392.542282,188" id="Fill-31" fill="#9A9A9A"></path>
            <path d="M258.151068,8.40514851 C258.360243,7.54281188 259.067524,6.83548515 259.931311,6.62780198 C261.765728,6.18685149 263.375922,7.80015842 262.933495,9.63318812 C262.725825,10.4970297 262.018544,11.2028515 261.156262,11.4120396 C259.32034,11.854495 257.707136,10.2426931 258.151068,8.40514851 Z M251,9.54289109 C251,13.6769901 256.870437,21.3748119 259.401602,24.503604 C259.99,25.230495 261.094563,25.230495 261.682961,24.503604 C264.214126,21.3748119 270.084563,13.6769901 270.084563,9.54289109 C270.084563,4.27255446 265.812282,0 260.542282,0 C255.272282,0 251,4.27405941 251,9.54289109 Z" id="Fill-31-Copy" fill="#9A9A9A"></path>
            <g id="Group-18" transform="translate(99.157725, 91.659191)">
                <path d="M12.5820817,6.79964909 L20.4167755,6.79964909 L20.4167755,3.75024878 L12.5820817,3.75024878 L12.5820817,6.79964909 Z M8.78506589,6.79964909 L8.78506589,3.71692974 C8.78506589,1.66356365 10.4692673,0 12.5482281,0 L20.4506291,0 C22.52959,0 24.2137913,1.66356365 24.2137913,3.71692974 L24.2137913,6.79964909 L29.7830428,6.79964909 C31.5581785,6.79964909 33,8.22192165 33,9.97718661 L33,26.8224625 C33,28.5758461 31.5581785,30 29.7830428,30 L3.21695717,30 C1.44182154,30 2.84217094e-14,28.5758461 2.84217094e-14,26.8224625 L2.84217094e-14,9.97718661 C2.84217094e-14,8.22192165 1.44182154,6.79964909 3.21695717,6.79964909 L8.78506589,6.79964909 Z" id="Combined-Shape" fill="#13CB6E" fill-rule="nonzero"></path>
                <path d="M18.5121951,21.589603 L18.5121951,18.9509375 C18.5121951,17.8883911 17.6113047,17.027027 16.5,17.027027 C15.3886953,17.027027 14.4878049,17.8883911 14.4878049,18.9509375 L14.4878049,21.589603 C14.4878049,22.6521494 15.3886953,23.5135135 16.5,23.5135135 C17.6113047,23.5135135 18.5121951,22.6521494 18.5121951,21.589603 Z" id="Stroke-29" fill="#ECF0F5" fill-rule="nonzero"></path>
                <polygon id="Fill-41" fill="#ECF0F5" points="0 18.6486486 33 18.6486486 33 16.2162162 0 16.2162162"></polygon>
            </g>
            <g id="Group-18-Copy" transform="translate(364.000000, 258.000000)">
                <path d="M11.8195313,6.34633915 L19.1793951,6.34633915 L19.1793951,3.50023219 L11.8195313,3.50023219 L11.8195313,6.34633915 Z M8.25263765,6.34633915 L8.25263765,3.46913442 C8.25263765,1.55265941 9.83476621,0 11.7877294,0 L19.211197,0 C21.1641603,0 22.7462888,1.55265941 22.7462888,3.46913442 L22.7462888,6.34633915 L27.9780099,6.34633915 C29.6455616,6.34633915 31,7.67379354 31,9.31204083 L31,25.0342983 C31,26.6707897 29.6455616,28 27.9780099,28 L3.02199007,28 C1.35443842,28 2.84217094e-14,26.6707897 2.84217094e-14,25.0342983 L2.84217094e-14,9.31204083 C2.84217094e-14,7.67379354 1.35443842,6.34633915 3.02199007,6.34633915 L8.25263765,6.34633915 Z" id="Combined-Shape" fill="#0176FF" fill-rule="nonzero"></path>
                <path d="M18,20.2203828 L18,17.7796172 C18,16.7967618 17.1045695,16 16,16 C14.8954305,16 14,16.7967618 14,17.7796172 L14,20.2203828 C14,21.2032382 14.8954305,22 16,22 C17.1045695,22 18,21.2032382 18,20.2203828 Z" id="Stroke-29" fill="#FFFFFF" fill-rule="nonzero"></path>
                <polygon id="Fill-41" fill="#FFFFFF" points="0 17 31 17 31 15 0 15"></polygon>
            </g>
        </g>
    </g>
</svg>