<?xml version="1.0" encoding="UTF-8"?>
<svg width="27px" height="29px" viewBox="0 0 27 29" version="1.1" xmlns="http://www.w3.org/2000/svg" xmlns:xlink="http://www.w3.org/1999/xlink">
    <!-- Generator: Sketch 48.2 (47327) - http://www.bohemiancoding.com/sketch -->
    <title>Group 14</title>
    <desc>Created with Sketch.</desc>
    <defs></defs>
    <g id="startup_pricing_v5" stroke="none" stroke-width="1" fill="none" fill-rule="evenodd" transform="translate(-720.000000, -310.000000)">
        <g id="Group-16" transform="translate(718.000000, 309.000000)">
            <g id="Group-14">
                <path d="M7.96730336,28.0328914 L21.1748657,28.0328914 L21.1748657,23.7589509 C21.1748657,20.8220555 19.0647731,18.3779986 16.2779387,17.8601308 L16.2779387,15.9082453 C17.7209142,15.2571148 18.7251979,13.805967 18.7251979,12.1202966 C18.7251979,9.82624829 16.865184,7.96655473 14.5707404,7.96655473 C12.2762969,7.96655473 10.416283,9.82624829 10.416283,12.1202966 C10.416283,13.8066368 11.421365,15.258268 12.8652625,15.9090211 L12.8652625,17.8599391 C10.0779169,18.3773952 7.96730336,20.8216929 7.96730336,23.7589509 L7.96730336,28.0328914 Z M6,28.0328914 L6,23.7923962 C6,20.656133 7.80472409,17.9413856 10.432318,16.6300084 C9.21317893,15.5112779 8.44897959,13.9049748 8.44897959,12.1202476 C8.44897959,8.7401282 11.1900934,6 14.5714286,6 C17.9527638,6 20.6938776,8.7401282 20.6938776,12.1202476 C20.6938776,13.9049748 19.9296782,15.5112779 18.7105391,16.6300084 C21.3381331,17.9413856 23.1428571,20.656133 23.1428571,23.7923962 L23.1428571,28.0328914 L23.1428571,30 L6,30 L6,28.0328914 Z" id="Combined-Shape" fill="#3A4F5A"></path>
                <polygon id="Star-2" fill="#0375FF" transform="translate(25.000000, 15.000000) rotate(-45.000000) translate(-25.000000, -15.000000) " points="25 17 22.648859 18.236068 23.097887 15.618034 21.1957739 13.763932 23.8244295 13.381966 25 11 26.1755705 13.381966 28.8042261 13.763932 26.902113 15.618034 27.351141 18.236068"></polygon>
                <polygon id="Star-2" fill="#0375FF" transform="translate(9.000000, 3.000000) rotate(-45.000000) translate(-9.000000, -3.000000) " points="9 4 7.8244295 4.61803399 8.04894348 3.30901699 7.09788697 2.38196601 8.41221475 2.19098301 9 1 9.58778525 2.19098301 10.902113 2.38196601 9.95105652 3.30901699 10.1755705 4.61803399"></polygon>
                <polygon id="Star-2" fill="#0375FF" transform="translate(5.000000, 16.000000) rotate(-45.000000) translate(-5.000000, -16.000000) " points="5 17.5 3.23664424 18.427051 3.57341523 16.4635255 2.14683045 15.072949 4.11832212 14.7864745 5 13 5.88167788 14.7864745 7.85316955 15.072949 6.42658477 16.4635255 6.76335576 18.427051"></polygon>
            </g>
        </g>
    </g>
</svg>