<?xml version="1.0" encoding="UTF-8"?>
<svg width="23px" height="27px" viewBox="0 0 23 27" version="1.1" xmlns="http://www.w3.org/2000/svg" xmlns:xlink="http://www.w3.org/1999/xlink">
    <!-- Generator: Sketch 48.2 (47327) - http://www.bohemiancoding.com/sketch -->
    <title>Group 6</title>
    <desc>Created with Sketch.</desc>
    <defs></defs>
    <g id="startup_pricing_v5" stroke="none" stroke-width="1" fill="none" fill-rule="evenodd" transform="translate(-1046.000000, -668.000000)">
        <g id="Group-12" transform="translate(718.000000, 669.000000)">
            <g id="Group-6" transform="translate(329.000000, 0.000000)">
                <g id="Group">
                    <g id="robo">
                        <g id="Group-5">
                            <path d="M15.5455163,24.9559844 L4.98330581,24.9559844 C5.46865183,22.9523654 7.13109014,21.3898087 9.22286379,20.994694 L9.22286379,19.5307704 L1,19.5307704 C0.44771525,19.5307704 2.49366311e-14,19.0830551 2.48689958e-14,18.5307704 L2.48689958e-14,8.59529959 C2.48013604e-14,8.04301484 0.44771525,7.59529959 1,7.59529959 L7.59529959,7.59529959 L7.59529959,6.51025679 L9.22286379,6.51025679 L9.22286379,4.04985238 C8.57422372,3.67463436 8.13782099,2.97332364 8.13782099,2.1700856 C8.13782099,0.971580416 9.10940141,-1.1121058e-15 10.3079066,-1.33226763e-15 C11.5064118,-1.99651867e-15 12.4779922,0.971580416 12.4779922,2.1700856 C12.4779922,2.97332364 12.0415895,3.67463436 11.3929494,4.04985238 L11.3929494,6.51025679 L13.0205136,6.51025679 L13.0205136,7.59529959 L19.6158132,7.59529959 C20.1680979,7.59529959 20.6158132,8.04301484 20.6158132,8.59529959 L20.6158132,18.5307704 C20.6158132,19.0830551 20.1680979,19.5307704 19.6158132,19.5307704 L11.3929494,19.5307704 L11.3929494,21.0118481 C13.4437283,21.4333405 15.0669178,22.9802205 15.5455163,24.9559844 Z" id="Combined-Shape" stroke="#394F5A"></path>
                            <rect id="Rectangle" fill="#0375FF" x="6.20176786" y="11.1827238" width="2.46791146" height="2.46791146" rx="1.23395573"></rect>
                            <rect id="Rectangle" fill="#0375FF" x="12.0950468" y="11.1827238" width="2.46791146" height="2.46791146" rx="1.23395573"></rect>
                        </g>
                    </g>
                    <path d="M5.46220869,15.2702022 L15.0523053,15.2702022 C14.3878287,16.6140566 12.4921243,17.5838692 10.257257,17.5838692 C8.02238976,17.5838692 6.12668536,16.6140566 5.46220869,15.2702022 Z" id="Combined-Shape" fill="#0375FF"></path>
                </g>
            </g>
        </g>
    </g>
</svg>