<?xml version="1.0" encoding="UTF-8"?>
<svg width="25px" height="25px" viewBox="0 0 25 25" version="1.1" xmlns="http://www.w3.org/2000/svg" xmlns:xlink="http://www.w3.org/1999/xlink">
    <!-- Generator: Sketch 48.2 (47327) - http://www.bohemiancoding.com/sketch -->
    <title>Group 6</title>
    <desc>Created with Sketch.</desc>
    <defs></defs>
    <g id="startup_pricing_v5" stroke="none" stroke-width="1" fill="none" fill-rule="evenodd" transform="translate(-718.000000, -755.000000)">
        <g id="Group-23" transform="translate(718.000000, 755.000000)" fill-rule="nonzero">
            <g id="Group-6">
                <g id="Group-5">
                    <path d="M17.3913043,16.3102123 C17.3913043,17.1215369 16.6867543,17.7605662 15.8782609,17.7605662 L1.50091001,17.7605662 C0.692012133,17.7605662 0,17.1215369 0,16.3102123 L0,7.95672396 C0,7.8653185 0.0469160768,7.78968655 0.111627907,7.72901921 C0.116481294,7.72214358 0.11809909,7.7140546 0.124165824,7.70717897 C0.129828109,7.70030334 0.137917088,7.69787664 0.144388271,7.69180991 C0.148837209,7.68533873 0.15247725,7.67805865 0.158948433,7.67199191 L8.45379171,0.444893832 C8.58916829,0.327351561 8.79040704,0.327351561 8.92578362,0.444893832 L17.2202224,7.67239636 C17.2266936,7.67846309 17.2295248,7.68655207 17.235996,7.69261881 C17.2420627,7.69868554 17.2501517,7.70151668 17.255814,7.70798787 C17.2590495,7.71203236 17.2598584,7.71648129 17.2626896,7.72012133 C17.3362993,7.78200202 17.3913043,7.86046512 17.3913043,7.95712841 L17.3913043,16.3106168 L17.3913043,16.3102123 Z" id="Shape" fill="#F3F8FE"></path>
                    <g id="download" transform="translate(1.086957, 1.086957)" fill="#394F5A">
                        <path d="M17.3913043,16.3102123 C17.3913043,17.1215369 16.6867543,17.7605662 15.8782609,17.7605662 L1.50091001,17.7605662 C0.692012133,17.7605662 0,17.1215369 0,16.3102123 L0,7.95672396 C0,7.8653185 0.0469160768,7.78968655 0.111627907,7.72901921 C0.116481294,7.72214358 0.11809909,7.7140546 0.124165824,7.70717897 C0.129828109,7.70030334 0.137917088,7.69787664 0.144388271,7.69180991 C0.148837209,7.68533873 0.15247725,7.67805865 0.158948433,7.67199191 L8.45379171,0.444893832 C8.58916829,0.327351561 8.79040704,0.327351561 8.92578362,0.444893832 L17.2202224,7.67239636 C17.2266936,7.67846309 17.2295248,7.68655207 17.235996,7.69261881 C17.2420627,7.69868554 17.2501517,7.70151668 17.255814,7.70798787 C17.2590495,7.71203236 17.2598584,7.71648129 17.2626896,7.72012133 C17.3362993,7.78200202 17.3913043,7.86046512 17.3913043,7.95712841 L17.3913043,16.3106168 L17.3913043,16.3102123 Z M16.6665319,16.3102123 L16.6665319,8.7065723 L12.237816,12.5973711 L16.6313448,16.5116279 C16.6519717,16.447725 16.6665319,16.3809909 16.6665319,16.3102123 Z M1.50091001,17.0353893 L15.8786653,17.0353893 C15.9534884,17.0353893 16.0254803,17.021638 16.0954499,17.0026289 L8.87077856,10.566633 C8.7793731,10.4881699 8.59979778,10.4881699 8.50394338,10.5706775 L1.28452983,17.0022245 C1.35449949,17.021638 1.42608696,17.0353893 1.50091001,17.0353893 Z M0.724368049,16.3102123 C0.724368049,16.3781598 0.737714863,16.4424671 0.756319515,16.5043478 L5.13447927,12.6038423 L0.724772497,8.71870576 L0.724772497,16.3102123 L0.724368049,16.3102123 Z M8.68998989,1.1983822 L0.944388271,7.94782609 L5.67846309,12.118908 L8.03033367,10.0238625 C8.40242669,9.70394338 8.97755308,9.70394338 9.34479272,10.019818 L11.6934277,12.1128413 L16.4347826,7.94742164 L8.68958544,1.1983822 L8.68998989,1.1983822 Z" id="Shape"></path>
                    </g>
                </g>
                <g id="Group-5" transform="translate(3.260870, 2.717391)">
                    <path d="M17.3913043,16.3102123 C17.3913043,17.1215369 16.6867543,17.7605662 15.8782609,17.7605662 L1.50091001,17.7605662 C0.692012133,17.7605662 0,17.1215369 0,16.3102123 L0,7.95672396 C0,7.8653185 0.0469160768,7.78968655 0.111627907,7.72901921 C0.116481294,7.72214358 0.11809909,7.7140546 0.124165824,7.70717897 C0.129828109,7.70030334 0.137917088,7.69787664 0.144388271,7.69180991 C0.148837209,7.68533873 0.15247725,7.67805865 0.158948433,7.67199191 L8.45379171,0.444893832 C8.58916829,0.327351561 8.79040704,0.327351561 8.92578362,0.444893832 L17.2202224,7.67239636 C17.2266936,7.67846309 17.2295248,7.68655207 17.235996,7.69261881 C17.2420627,7.69868554 17.2501517,7.70151668 17.255814,7.70798787 C17.2590495,7.71203236 17.2598584,7.71648129 17.2626896,7.72012133 C17.3362993,7.78200202 17.3913043,7.86046512 17.3913043,7.95712841 L17.3913043,16.3106168 L17.3913043,16.3102123 Z" id="Shape" fill="#F3F8FE"></path>
                    <g id="download" transform="translate(1.086957, 1.086957)" fill="#394F5A">
                        <path d="M17.3913043,16.3102123 C17.3913043,17.1215369 16.6867543,17.7605662 15.8782609,17.7605662 L1.50091001,17.7605662 C0.692012133,17.7605662 0,17.1215369 0,16.3102123 L0,7.95672396 C0,7.8653185 0.0469160768,7.78968655 0.111627907,7.72901921 C0.116481294,7.72214358 0.11809909,7.7140546 0.124165824,7.70717897 C0.129828109,7.70030334 0.137917088,7.69787664 0.144388271,7.69180991 C0.148837209,7.68533873 0.15247725,7.67805865 0.158948433,7.67199191 L8.45379171,0.444893832 C8.58916829,0.327351561 8.79040704,0.327351561 8.92578362,0.444893832 L17.2202224,7.67239636 C17.2266936,7.67846309 17.2295248,7.68655207 17.235996,7.69261881 C17.2420627,7.69868554 17.2501517,7.70151668 17.255814,7.70798787 C17.2590495,7.71203236 17.2598584,7.71648129 17.2626896,7.72012133 C17.3362993,7.78200202 17.3913043,7.86046512 17.3913043,7.95712841 L17.3913043,16.3106168 L17.3913043,16.3102123 Z M16.6665319,16.3102123 L16.6665319,8.7065723 L12.237816,12.5973711 L16.6313448,16.5116279 C16.6519717,16.447725 16.6665319,16.3809909 16.6665319,16.3102123 Z M1.50091001,17.0353893 L15.8786653,17.0353893 C15.9534884,17.0353893 16.0254803,17.021638 16.0954499,17.0026289 L8.87077856,10.566633 C8.7793731,10.4881699 8.59979778,10.4881699 8.50394338,10.5706775 L1.28452983,17.0022245 C1.35449949,17.021638 1.42608696,17.0353893 1.50091001,17.0353893 Z M0.724368049,16.3102123 C0.724368049,16.3781598 0.737714863,16.4424671 0.756319515,16.5043478 L5.13447927,12.6038423 L0.724772497,8.71870576 L0.724772497,16.3102123 L0.724368049,16.3102123 Z M8.68998989,1.1983822 L0.944388271,7.94782609 L5.67846309,12.118908 L8.03033367,10.0238625 C8.40242669,9.70394338 8.97755308,9.70394338 9.34479272,10.019818 L11.6934277,12.1128413 L16.4347826,7.94742164 L8.68958544,1.1983822 L8.68998989,1.1983822 Z" id="Shape"></path>
                    </g>
                </g>
                <g id="Group-5" transform="translate(6.521739, 5.434783)">
                    <path d="M17.3913043,16.3102123 C17.3913043,17.1215369 16.6867543,17.7605662 15.8782609,17.7605662 L1.50091001,17.7605662 C0.692012133,17.7605662 0,17.1215369 0,16.3102123 L0,7.95672396 C0,7.8653185 0.0469160768,7.78968655 0.111627907,7.72901921 C0.116481294,7.72214358 0.11809909,7.7140546 0.124165824,7.70717897 C0.129828109,7.70030334 0.137917088,7.69787664 0.144388271,7.69180991 C0.148837209,7.68533873 0.15247725,7.67805865 0.158948433,7.67199191 L8.45379171,0.444893832 C8.58916829,0.327351561 8.79040704,0.327351561 8.92578362,0.444893832 L17.2202224,7.67239636 C17.2266936,7.67846309 17.2295248,7.68655207 17.235996,7.69261881 C17.2420627,7.69868554 17.2501517,7.70151668 17.255814,7.70798787 C17.2590495,7.71203236 17.2598584,7.71648129 17.2626896,7.72012133 C17.3362993,7.78200202 17.3913043,7.86046512 17.3913043,7.95712841 L17.3913043,16.3106168 L17.3913043,16.3102123 Z" id="Shape" fill="#F3F8FE"></path>
                    <g id="download" transform="translate(1.086957, 1.086957)" fill="#0375FF">
                        <path d="M17.3913043,16.3102123 C17.3913043,17.1215369 16.6867543,17.7605662 15.8782609,17.7605662 L1.50091001,17.7605662 C0.692012133,17.7605662 0,17.1215369 0,16.3102123 L0,7.95672396 C0,7.8653185 0.0469160768,7.78968655 0.111627907,7.72901921 C0.116481294,7.72214358 0.11809909,7.7140546 0.124165824,7.70717897 C0.129828109,7.70030334 0.137917088,7.69787664 0.144388271,7.69180991 C0.148837209,7.68533873 0.15247725,7.67805865 0.158948433,7.67199191 L8.45379171,0.444893832 C8.58916829,0.327351561 8.79040704,0.327351561 8.92578362,0.444893832 L17.2202224,7.67239636 C17.2266936,7.67846309 17.2295248,7.68655207 17.235996,7.69261881 C17.2420627,7.69868554 17.2501517,7.70151668 17.255814,7.70798787 C17.2590495,7.71203236 17.2598584,7.71648129 17.2626896,7.72012133 C17.3362993,7.78200202 17.3913043,7.86046512 17.3913043,7.95712841 L17.3913043,16.3106168 L17.3913043,16.3102123 Z M16.6665319,16.3102123 L16.6665319,8.7065723 L12.237816,12.5973711 L16.6313448,16.5116279 C16.6519717,16.447725 16.6665319,16.3809909 16.6665319,16.3102123 Z M1.50091001,17.0353893 L15.8786653,17.0353893 C15.9534884,17.0353893 16.0254803,17.021638 16.0954499,17.0026289 L8.87077856,10.566633 C8.7793731,10.4881699 8.59979778,10.4881699 8.50394338,10.5706775 L1.28452983,17.0022245 C1.35449949,17.021638 1.42608696,17.0353893 1.50091001,17.0353893 Z M0.724368049,16.3102123 C0.724368049,16.3781598 0.737714863,16.4424671 0.756319515,16.5043478 L5.13447927,12.6038423 L0.724772497,8.71870576 L0.724772497,16.3102123 L0.724368049,16.3102123 Z" id="Shape"></path>
                    </g>
                </g>
            </g>
        </g>
    </g>
</svg>