<?xml version="1.0" encoding="UTF-8"?>
<svg width="25px" height="25px" viewBox="0 0 25 25" version="1.1" xmlns="http://www.w3.org/2000/svg" xmlns:xlink="http://www.w3.org/1999/xlink">
    <!-- Generator: Sketch 48.2 (47327) - http://www.bohemiancoding.com/sketch -->
    <title>Group 15</title>
    <desc>Created with Sketch.</desc>
    <defs></defs>
    <g id="startup_pricing_v5" stroke="none" stroke-width="1" fill="none" fill-rule="evenodd" transform="translate(-718.000000, -711.000000)">
        <g id="Group-20" transform="translate(718.000000, 711.000000)">
            <g id="Group-15">
                <path d="M12.5,25 C5.59644063,25 0,19.4035594 0,12.5 C0,5.59644063 5.59644063,0 12.5,0 C19.4035594,0 25,5.59644063 25,12.5 C25,19.4035594 19.4035594,25 12.5,25 Z M12.4998152,23.6848157 C18.6771204,23.6848157 23.6848157,18.6771204 23.6848157,12.4998152 C23.6848157,6.32251008 18.6771204,1.31481481 12.4998152,1.31481481 C6.32251008,1.31481481 1.31481481,6.32251008 1.31481481,12.4998152 C1.31481481,18.6771204 6.32251008,23.6848157 12.4998152,23.6848157 Z" id="Combined-Shape" fill="#3A4F5A"></path>
                <path d="M5,13 C5.29545239,9.0844055 8.54044236,6 12.5,6 C16.4595576,6 19.7045476,9.0844055 20,13 L18.6555296,13 C18.3626268,9.83376817 15.7196511,7.35544437 12.5025193,7.35544437 C9.28538745,7.35544437 6.64241169,9.83376817 6.34950894,13 L5,13 Z" id="Combined-Shape" fill="#3A4F5A"></path>
                <path d="M5,20 C5.29545239,16.0844055 8.54044236,13 12.5,13 C16.4595576,13 19.7045476,16.0844055 20,20 L18.6555296,20 C18.3626268,16.8337682 15.7196511,14.3554444 12.5025193,14.3554444 C9.28538745,14.3554444 6.64241169,16.8337682 6.34950894,20 L5,20 Z" id="Combined-Shape" fill="#3A4F5A" transform="translate(12.500000, 16.500000) scale(1, -1) translate(-12.500000, -16.500000) "></path>
                <path d="M15.3512691,9.01841033 C15.0039925,8.7896074 14.5881149,8.65645514 14.1411379,8.65645514 C12.924782,8.65645514 11.9387308,9.64250635 11.9387308,10.8588621 C11.9387308,12.075218 12.924782,13.0612692 14.1411379,13.0612692 C15.3574937,13.0612692 16.3435449,12.075218 16.3435449,10.8588621 C16.3435449,10.4118851 16.2103926,9.99600753 15.9815897,9.64873089 C16.6180412,10.4249654 17,11.4178771 17,12.5 C17,14.9852814 14.9852814,17 12.5,17 C10.0147186,17 8,14.9852814 8,12.5 C8,10.0147186 10.0147186,8 12.5,8 C13.5821229,8 14.5750346,8.38195877 15.3512691,9.01841033 Z" id="Combined-Shape" fill="#0375FF"></path>
            </g>
        </g>
    </g>
</svg>