<?xml version="1.0" encoding="UTF-8"?>
<svg width="28px" height="24px" viewBox="0 0 28 24" version="1.1" xmlns="http://www.w3.org/2000/svg" xmlns:xlink="http://www.w3.org/1999/xlink">
    <!-- Generator: Sketch 48.2 (47327) - http://www.bohemiancoding.com/sketch -->
    <title>Group 17</title>
    <desc>Created with Sketch.</desc>
    <defs></defs>
    <g id="startup_pricing_v5" stroke="none" stroke-width="1" fill="none" fill-rule="evenodd" transform="translate(-720.000000, -424.000000)">
        <g id="Group-16" transform="translate(718.000000, 309.000000)">
            <g id="Group-17" transform="translate(2.000000, 115.000000)">
                <g id="Group-13" transform="translate(9.000000, 12.000000) rotate(-112.000000) translate(-9.000000, -12.000000) translate(-1.000000, 7.000000)" fill="#3A4F5A">
                    <path d="M0,0 L20,0 L20,10 L0,10 L0,0 Z M1,1 L1,9 L19,9 L19,1 L1,1 Z" id="Combined-Shape"></path>
                    <path d="M0,2.73243561 L0,0 L2.73243561,0 C2.90260571,0.294173367 3,0.635712857 3,1 C3,2.1045695 2.1045695,3 1,3 C0.635712857,3 0.294173367,2.90260571 -4.01900735e-14,2.73243561 Z" id="Combined-Shape"></path>
                    <path d="M17,2.73243561 L17,-5.68434189e-14 L19.7324356,-5.68434189e-14 C19.9026057,0.294173367 20,0.635712857 20,1 C20,2.1045695 19.1045695,3 18,3 C17.6357129,3 17.2941734,2.90260571 17,2.73243561 Z" id="Combined-Shape" transform="translate(18.500000, 1.500000) scale(-1, 1) translate(-18.500000, -1.500000) "></path>
                    <path d="M0,9.73243561 L0,7 L2.73243561,7 C2.90260571,7.29417337 3,7.63571286 3,8 C3,9.1045695 2.1045695,10 1,10 C0.635712857,10 0.294173367,9.90260571 -4.01900735e-14,9.73243561 Z" id="Combined-Shape" transform="translate(1.500000, 8.500000) scale(1, -1) translate(-1.500000, -8.500000) "></path>
                    <path d="M17,9.73243561 L17,7 L19.7324356,7 C19.9026057,7.29417337 20,7.63571286 20,8 C20,9.1045695 19.1045695,10 18,10 C17.6357129,10 17.2941734,9.90260571 17,9.73243561 Z" id="Combined-Shape" transform="translate(18.500000, 8.500000) scale(-1, -1) translate(-18.500000, -8.500000) "></path>
                    <path d="M10,8 C8.34314575,8 7,6.65685425 7,5 C7,3.34314575 8.34314575,2 10,2 C11.6568542,2 13,3.34314575 13,5 C13,6.65685425 11.6568542,8 10,8 Z M10,7 C11.1045695,7 12,6.1045695 12,5 C12,3.8954305 11.1045695,3 10,3 C8.8954305,3 8,3.8954305 8,5 C8,6.1045695 8.8954305,7 10,7 Z" id="Combined-Shape"></path>
                </g>
                <g id="Group-13" transform="translate(19.000000, 12.000000) scale(-1, 1) rotate(-112.000000) translate(-19.000000, -12.000000) translate(9.000000, 7.000000)" fill="#3A4F5A">
                    <path d="M0,0 L20,0 L20,10 L0,10 L0,0 Z M1,1 L1,9 L19,9 L19,1 L1,1 Z" id="Combined-Shape"></path>
                    <path d="M0,2.73243561 L0,0 L2.73243561,0 C2.90260571,0.294173367 3,0.635712857 3,1 C3,2.1045695 2.1045695,3 1,3 C0.635712857,3 0.294173367,2.90260571 -4.01900735e-14,2.73243561 Z" id="Combined-Shape"></path>
                    <path d="M17,2.73243561 L17,-5.68434189e-14 L19.7324356,-5.68434189e-14 C19.9026057,0.294173367 20,0.635712857 20,1 C20,2.1045695 19.1045695,3 18,3 C17.6357129,3 17.2941734,2.90260571 17,2.73243561 Z" id="Combined-Shape" transform="translate(18.500000, 1.500000) scale(-1, 1) translate(-18.500000, -1.500000) "></path>
                    <path d="M0,9.73243561 L0,7 L2.73243561,7 C2.90260571,7.29417337 3,7.63571286 3,8 C3,9.1045695 2.1045695,10 1,10 C0.635712857,10 0.294173367,9.90260571 -4.01900735e-14,9.73243561 Z" id="Combined-Shape" transform="translate(1.500000, 8.500000) scale(1, -1) translate(-1.500000, -8.500000) "></path>
                    <path d="M17,9.73243561 L17,7 L19.7324356,7 C19.9026057,7.29417337 20,7.63571286 20,8 C20,9.1045695 19.1045695,10 18,10 C17.6357129,10 17.2941734,9.90260571 17,9.73243561 Z" id="Combined-Shape" transform="translate(18.500000, 8.500000) scale(-1, -1) translate(-18.500000, -8.500000) "></path>
                    <path d="M10,8 C8.34314575,8 7,6.65685425 7,5 C7,3.34314575 8.34314575,2 10,2 C11.6568542,2 13,3.34314575 13,5 C13,6.65685425 11.6568542,8 10,8 Z M10,7 C11.1045695,7 12,6.1045695 12,5 C12,3.8954305 11.1045695,3 10,3 C8.8954305,3 8,3.8954305 8,5 C8,6.1045695 8.8954305,7 10,7 Z" id="Combined-Shape"></path>
                </g>
                <rect id="Rectangle-8" fill="#FFFFFF" x="8" y="0" width="12" height="22"></rect>
                <g id="Group-13" transform="translate(14.000000, 11.000000) rotate(-90.000000) translate(-14.000000, -11.000000) translate(4.000000, 6.000000)" fill="#0375FF">
                    <path d="M0,0 L20,0 L20,10 L0,10 L0,0 Z M1,1 L1,9 L19,9 L19,1 L1,1 Z" id="Combined-Shape"></path>
                    <path d="M0,2.73243561 L0,0 L2.73243561,0 C2.90260571,0.294173367 3,0.635712857 3,1 C3,2.1045695 2.1045695,3 1,3 C0.635712857,3 0.294173367,2.90260571 -4.01900735e-14,2.73243561 Z" id="Combined-Shape"></path>
                    <path d="M17,2.73243561 L17,-5.68434189e-14 L19.7324356,-5.68434189e-14 C19.9026057,0.294173367 20,0.635712857 20,1 C20,2.1045695 19.1045695,3 18,3 C17.6357129,3 17.2941734,2.90260571 17,2.73243561 Z" id="Combined-Shape" transform="translate(18.500000, 1.500000) scale(-1, 1) translate(-18.500000, -1.500000) "></path>
                    <path d="M0,9.73243561 L0,7 L2.73243561,7 C2.90260571,7.29417337 3,7.63571286 3,8 C3,9.1045695 2.1045695,10 1,10 C0.635712857,10 0.294173367,9.90260571 -4.01900735e-14,9.73243561 Z" id="Combined-Shape" transform="translate(1.500000, 8.500000) scale(1, -1) translate(-1.500000, -8.500000) "></path>
                    <path d="M17,9.73243561 L17,7 L19.7324356,7 C19.9026057,7.29417337 20,7.63571286 20,8 C20,9.1045695 19.1045695,10 18,10 C17.6357129,10 17.2941734,9.90260571 17,9.73243561 Z" id="Combined-Shape" transform="translate(18.500000, 8.500000) scale(-1, -1) translate(-18.500000, -8.500000) "></path>
                    <path d="M10,8 C8.34314575,8 7,6.65685425 7,5 C7,3.34314575 8.34314575,2 10,2 C11.6568542,2 13,3.34314575 13,5 C13,6.65685425 11.6568542,8 10,8 Z M10,7 C11.1045695,7 12,6.1045695 12,5 C12,3.8954305 11.1045695,3 10,3 C8.8954305,3 8,3.8954305 8,5 C8,6.1045695 8.8954305,7 10,7 Z" id="Combined-Shape"></path>
                </g>
            </g>
        </g>
    </g>
</svg>