<?xml version="1.0" encoding="UTF-8"?>
<svg width="28px" height="18px" viewBox="0 0 28 18" version="1.1" xmlns="http://www.w3.org/2000/svg" xmlns:xlink="http://www.w3.org/1999/xlink">
    <!-- Generator: Sketch 48.2 (47327) - http://www.bohemiancoding.com/sketch -->
    <title>Group 3</title>
    <desc>Created with Sketch.</desc>
    <defs></defs>
    <g id="startup_pricing_v5" stroke="none" stroke-width="1" fill="none" fill-rule="evenodd" transform="translate(-1045.000000, -758.000000)">
        <g id="Group-23" transform="translate(718.000000, 755.000000)">
            <g id="Group-3" transform="translate(327.000000, 3.000000)">
                <path d="M9.93526286,15.0415259 C9.35485866,15.0415259 8.35809764,15.0489195 8.09978081,15.050768 C6.74211558,17.3714605 3.87244199,17.5530679 3.74674936,17.5590753 C3.73981778,17.5599995 3.7328862,17.5599995 3.72549252,17.5599995 C3.57305435,17.5595334 3.43326004,17.4751595 3.36181569,17.3404995 C3.28586547,17.1985308 3.29733891,17.0257122 3.39139042,16.89503 C3.40248095,16.8802426 4.44499039,15.4098237 4.53787355,13.6468922 C1.60997469,12.0895975 0,9.9218618 0,7.52076293 C0,3.37336832 4.45700513,0 9.93526286,0 C15.4135206,0 19.8705257,3.37336832 19.8705257,7.52076293 C19.8705257,11.6676954 15.4135206,15.0415259 9.93526286,15.0415259 Z M9.93526286,0.835948396 C4.91356511,0.835948396 0.828092606,3.83501146 0.828092606,7.52076293 C0.828092606,10.3996786 3.53418095,12.2051238 5.14739037,13.0248986 C5.16633668,13.0350649 5.17927563,13.0512386 5.19591142,13.0632533 C5.21901668,13.0798891 5.24350826,13.0946764 5.26291668,13.1159333 C5.28140089,13.1362659 5.29341563,13.1598333 5.30774089,13.1834007 C5.32114194,13.2055817 5.33592931,13.2254522 5.34563352,13.2499438 C5.35672405,13.2795185 5.35949668,13.3109417 5.36411773,13.3423649 C5.36689036,13.3613112 5.37520826,13.3784091 5.37520826,13.3987417 L5.37474615,13.4167638 L5.37428405,13.4213849 C5.36873878,14.708348 4.91448932,15.8548311 4.54110828,16.5807984 C5.43066089,16.3589879 6.80265137,15.8044616 7.49719556,14.4389406 C7.5639412,14.3114937 7.69274357,14.2284916 7.83638081,14.2203648 C7.84885766,14.2185164 7.86041029,14.212509 7.87334923,14.2120469 L8.03970712,14.2152817 C8.04155554,14.2152817 9.26567235,14.2051154 9.93526286,14.2051154 C14.9569606,14.2051154 19.0424331,11.2065144 19.0424331,7.52076293 C19.0424331,3.83454936 14.9574227,0.835948396 9.93526286,0.835948396 Z" id="Shape" fill="#394E59" fill-rule="nonzero"></path>
                <path d="M13.7192619,5.24264069 L23.8004267,5.24264069 C24.6288539,5.24264069 25.3004267,5.91421356 25.3004267,6.74264069 L25.3004267,8.74264069 C25.3004267,9.57106781 24.6288539,10.2426407 23.8004267,10.2426407 L13.7192619,10.2426407 C12.8908348,10.2426407 12.2192619,9.57106781 12.2192619,8.74264069 L12.2192619,6.74264069 C12.2192619,5.91421356 12.8908348,5.24264069 13.7192619,5.24264069 Z" id="Rectangle-4" fill="#F3F8FE"></path>
                <path d="M22.3464922,6.24264069 L21.0144678,4.91061624 C20.5036165,4.39976498 20.5036165,3.57151143 21.0144678,3.06066017 C21.525319,2.54980891 22.3535726,2.54980891 22.8644239,3.06066017 L26.671322,6.86755835 C27.1821733,7.37840961 27.1821733,8.20666316 26.671322,8.71751442 C26.6116176,8.77721887 26.5475777,8.82994551 26.4802157,8.87569434 C26.4302749,8.94727161 26.3733707,9.01546579 26.309503,9.07933345 L23.4976072,11.8912293 C22.9118207,12.4770157 21.9620733,12.4770157 21.3762868,11.8912293 C20.7905004,11.3054429 20.7905004,10.3556954 21.3762868,9.76990895 L21.9035551,9.24264069 L14.7192619,9.24264069 C13.8908348,9.24264069 13.2192619,8.57106781 13.2192619,7.74264069 C13.2192619,6.91421356 13.8908348,6.24264069 14.7192619,6.24264069 L22.3464922,6.24264069 Z M11.2309513,6.24264069 C12.0593784,6.24264069 12.7309513,6.91421356 12.7309513,7.74264069 C12.7309513,8.57106781 12.0593784,9.24264069 11.2309513,9.24264069 C10.4025242,9.24264069 9.7309513,8.57106781 9.7309513,7.74264069 C9.7309513,6.91421356 10.4025242,6.24264069 11.2309513,6.24264069 Z M7.74264069,6.24264069 C8.57106781,6.24264069 9.24264069,6.91421356 9.24264069,7.74264069 C9.24264069,8.57106781 8.57106781,9.24264069 7.74264069,9.24264069 C6.91421356,9.24264069 6.24264069,8.57106781 6.24264069,7.74264069 C6.24264069,6.91421356 6.91421356,6.24264069 7.74264069,6.24264069 Z" id="Combined-Shape" fill="#0375FF"></path>
            </g>
        </g>
    </g>
</svg>