<?xml version="1.0" encoding="UTF-8"?>
<svg width="26px" height="24px" viewBox="0 0 26 24" version="1.1" xmlns="http://www.w3.org/2000/svg" xmlns:xlink="http://www.w3.org/1999/xlink">
    <!-- Generator: Sketch 48.2 (47327) - http://www.bohemiancoding.com/sketch -->
    <title>Group 11</title>
    <desc>Created with Sketch.</desc>
    <defs></defs>
    <g id="startup_pricing_v5" stroke="none" stroke-width="1" fill="none" fill-rule="evenodd" transform="translate(-721.000000, -368.000000)">
        <g id="Group-16" transform="translate(718.000000, 309.000000)">
            <g id="Group-11" transform="translate(3.000000, 59.000000)">
                <path d="M1.14759363,22.85252 L8.85200497,22.85252 L8.85200497,20.7115937 C8.85200497,18.9283853 7.64037358,17.4281686 5.99546422,16.989297 L5.99546422,15.7798098 C6.83719993,15.3999836 7.42303213,14.5534808 7.42303213,13.570173 C7.42303213,12.2319782 6.33802398,11.1471569 4.99959859,11.1471569 C3.66117321,11.1471569 2.57616506,12.2319782 2.57616506,13.570173 C2.57616506,14.5538715 3.16246292,15.4006563 4.00473648,15.7802623 L4.00473648,16.9891364 C2.3595207,17.4278025 1.14759363,18.9281678 1.14759363,20.7115937 L1.14759363,22.85252 Z M0,22.85252 L0,20.7122311 C-2.35536755e-16,18.7889276 1.08592905,17.1192563 2.67810095,16.2829036 C1.91325578,15.6281139 1.42857143,14.6557109 1.42857143,13.5701444 C1.42857143,11.5984081 3.02755447,10 5,10 C6.97244554,10 8.57142857,11.5984081 8.57142857,13.5701444 C8.57142857,14.6557109 8.08674422,15.6281139 7.32189905,16.2829036 C8.91407095,17.1192563 10,18.7889276 10,20.7122311 L10,22.85252 L10,24 L0,24 L0,22.85252 Z" id="Combined-Shape" fill="#0375FF"></path>
                <path d="M10.583523,17.7112397 C10.4275421,17.3544491 10.2311224,17.0193781 10.0000582,16.7118212 C10.2134734,16.5515237 10.4401328,16.407906 10.6781009,16.2829036 C9.91325578,15.6281139 9.42857143,14.6557109 9.42857143,13.5701444 C9.42857143,11.5984081 11.0275545,10 13,10 C14.9724455,10 16.5714286,11.5984081 16.5714286,13.5701444 C16.5714286,14.6557109 16.0867442,15.6281139 15.3218991,16.2829036 C16.9140709,17.1192563 18,18.7889276 18,20.7122311 L18,22.85252 L18,24 L10.7909514,24 C10.9006144,23.633411 10.969351,23.2491498 10.9918573,22.85252 L16.852005,22.85252 L16.852005,20.7115937 C16.852005,18.9283853 15.6403736,17.4281686 13.9954642,16.989297 L13.9954642,15.7798098 C14.8371999,15.3999836 15.4230321,14.5534808 15.4230321,13.570173 C15.4230321,12.2319782 14.338024,11.1471569 12.9995986,11.1471569 C11.6611732,11.1471569 10.5761651,12.2319782 10.5761651,13.570173 C10.5761651,14.5538715 11.1624629,15.4006563 12.0047365,15.7802623 L12.0047365,16.9891364 C11.4780856,17.129558 10.9958342,17.3787728 10.583523,17.7112397 Z" id="Combined-Shape" fill="#3A4F5A"></path>
                <path d="M18.583523,17.7112397 C18.4275421,17.3544491 18.2311224,17.0193781 18.0000582,16.7118212 C18.2134734,16.5515237 18.4401328,16.407906 18.6781009,16.2829036 C17.9132558,15.6281139 17.4285714,14.6557109 17.4285714,13.5701444 C17.4285714,11.5984081 19.0275545,10 21,10 C22.9724455,10 24.5714286,11.5984081 24.5714286,13.5701444 C24.5714286,14.6557109 24.0867442,15.6281139 23.3218991,16.2829036 C24.9140709,17.1192563 26,18.7889276 26,20.7122311 L26,22.85252 L26,24 L18.7909514,24 C18.9006144,23.633411 18.969351,23.2491498 18.9918573,22.85252 L24.852005,22.85252 L24.852005,20.7115937 C24.852005,18.9283853 23.6403736,17.4281686 21.9954642,16.989297 L21.9954642,15.7798098 C22.8371999,15.3999836 23.4230321,14.5534808 23.4230321,13.570173 C23.4230321,12.2319782 22.338024,11.1471569 20.9995986,11.1471569 C19.6611732,11.1471569 18.5761651,12.2319782 18.5761651,13.570173 C18.5761651,14.5538715 19.1624629,15.4006563 20.0047365,15.7802623 L20.0047365,16.9891364 C19.4780856,17.129558 18.9958342,17.3787728 18.583523,17.7112397 Z" id="Combined-Shape" fill="#3A4F5A"></path>
                <path d="M12.4668561,9.03059052 C11.9835175,8.03555397 11.0844395,7.27984208 9.99546422,6.98929698 L9.99546422,5.77980978 C10.8371999,5.39998364 11.4230321,4.55348075 11.4230321,3.57017299 C11.4230321,2.23197817 10.338024,1.14715693 8.99959859,1.14715693 C7.66117321,1.14715693 6.57616506,2.23197817 6.57616506,3.57017299 C6.57616506,4.55387147 7.16246292,5.40065634 8.00473648,5.78026234 L8.00473648,6.98913639 C6.91539208,7.27958978 6.01600763,8.0355072 5.53261143,9.03086035 C5.35742975,9.01047839 5.17922479,9 4.9985716,9 C4.75437689,9 4.51465556,9.0191459 4.28082785,9.05601797 C4.70162222,7.85696359 5.56647558,6.8668298 6.67810095,6.2829036 C5.91325578,5.62811395 5.42857143,4.65571089 5.42857143,3.57014445 C5.42857143,1.59840811 7.02755447,0 9,0 C10.9724455,0 12.5714286,1.59840811 12.5714286,3.57014445 C12.5714286,4.65571089 12.0867442,5.62811395 11.3218991,6.2829036 C12.4336721,6.86690739 13.2986076,7.85722672 13.7193399,9.05649594 C13.4845549,9.01931138 13.2438193,9 12.9985716,9 C12.8187173,9 12.6412897,9.01038592 12.4668561,9.03059052 Z" id="Combined-Shape" fill="#3A4F5A"></path>
                <path d="M14.5833149,7.71076371 C14.4273025,7.35400281 14.2308564,7.01896292 13.9997702,6.7114378 C14.2130363,6.55129469 14.4395239,6.40780636 14.6773024,6.2829036 C13.9124572,5.62811395 13.4277729,4.65571089 13.4277729,3.57014445 C13.4277729,1.59840811 15.0267559,0 16.9992014,0 C18.971647,0 20.57063,1.59840811 20.57063,3.57014445 C20.57063,4.65571089 20.0859457,5.62811395 19.3211005,6.2829036 C20.4328736,6.86690739 21.2978091,7.85722672 21.7185413,9.05649594 C21.4837564,9.01931138 21.2430207,9 20.997773,9 C20.8179188,9 20.6404911,9.01038592 20.4660576,9.03059052 C19.9827189,8.03555397 19.0836409,7.27984208 17.9946657,6.98929698 L17.9946657,5.77980978 C18.8364014,5.39998364 19.4222336,4.55348075 19.4222336,3.57017299 C19.4222336,2.23197817 18.3372254,1.14715693 16.9988,1.14715693 C15.6603747,1.14715693 14.5753665,2.23197817 14.5753665,3.57017299 C14.5753665,4.55387147 15.1616644,5.40065634 16.0039379,5.78026234 L16.0039379,6.98913639 C15.4775384,7.12949101 14.995496,7.37853488 14.5833149,7.71076371 Z" id="Combined-Shape" fill="#0375FF"></path>
            </g>
        </g>
    </g>
</svg>