<?xml version="1.0" encoding="UTF-8"?>
<svg width="28px" height="34px" viewBox="0 0 28 34" version="1.1" xmlns="http://www.w3.org/2000/svg" xmlns:xlink="http://www.w3.org/1999/xlink">
    <!-- Generator: Sketch 48.2 (47327) - http://www.bohemiancoding.com/sketch -->
    <title>Group 21</title>
    <desc>Created with Sketch.</desc>
    <defs>
        <path d="M10.1541877,13.5901875 L8.04962407,19.5410844 C7.68134032,20.5824493 6.5385943,21.1280894 5.4972294,20.7598057 C5.381707,20.7189506 5.27018361,20.6675655 5.16406612,20.6062985 L1.29337382,18.3715533 C0.374675758,17.8411427 0.0299238975,16.6857187 0.507765184,15.738613 L4.12263623,8.57375498 C3.95980117,7.61198686 4.52181514,6.65062424 5.47721781,6.34019491 L15.4692795,3.09357905 C16.5197876,2.75224842 17.6480957,3.32715031 17.9894264,4.37765837 C17.9997779,4.40951722 18.0093275,4.44163112 18.0180659,4.47396966 L18.1470013,4.95104476 C18.408382,5.91834338 17.9135083,6.91395676 17.0193807,7.3046875 L19.000932,7.3046875 L25.1265036,1.17911585 C25.6970281,0.608591347 26.6220311,0.608591347 27.1925556,1.17911585 C27.1925599,1.17912012 27.1925642,1.17912439 27.1925684,1.17912867 L27.2891724,1.27577116 C27.8246476,1.8112597 27.876988,2.66189773 27.4112016,3.25899465 C24.6807953,6.75913361 22.7083268,9.18685836 21.4937962,10.5421689 C21.2863898,11.2692925 20.6764095,11.8364838 19.8991105,11.9660337 L10.1541877,13.5901875 Z" id="path-1"></path>
    </defs>
    <g id="startup_pricing_v5" stroke="none" stroke-width="1" fill="none" fill-rule="evenodd" transform="translate(-720.000000, -470.000000)">
        <g id="Group-16" transform="translate(718.000000, 309.000000)">
            <g id="Group-21" transform="translate(2.000000, 161.000000)">
                <path d="M12.8443771,10.0804863 L12.8443771,12.0784314 L13.7750331,12.0784314 L14.8895143,12.0784314 L13.7533303,10.0804863 L14.6622835,5.33254118 L13.2988685,0.584596078 L12.8443771,0.584596078 L13.7533303,5.33254118 L12.8443771,10.0804863 Z M12.3498192,9.77510956 C12.6542469,8.87149461 10.8677472,9.56273676 8.98809522,8.85897941 C7.09334791,8.14964657 6.93420919,7.03122696 6.53944669,5.24941299 C6.20150674,6.14092794 6.97525428,9.58026397 8.90149718,10.2893892 C10.8122592,10.992761 12.0422479,10.6879478 12.3498192,9.77510956 Z M9.45293688,7.58815319 C7.55821924,6.87879069 7.59273982,6.41193235 6.53944669,4.74509804 C6.93420919,6.52691201 7.09334791,7.64533162 8.98809522,8.35466446 C10.8485295,9.0512152 12.6180952,8.38171152 12.3588942,9.24404412 C12.6282675,8.36569681 11.3138457,8.28485221 9.45293688,7.58815319 Z M15.0994256,5.58136225 C15.4383739,6.60324877 16.7939001,6.94453995 18.899656,6.15706127 C21.0224349,5.36323603 21.8751884,1.5129152 21.5027575,0.514872794 C21.0677506,2.50956373 20.8923006,3.76164681 18.8042499,4.55579828 C16.732718,5.34360319 14.7639175,4.56976667 15.0994256,5.58136225 Z M18.2919276,3.18283382 C16.2403844,3.96307623 14.7914094,4.05142402 15.0896982,5.03573529 C14.8046067,4.07087892 16.7541599,4.82057475 18.8042499,4.04089583 C20.8923006,3.24680368 21.0677506,1.99472059 21.5027575,0 C20.3419285,1.86603946 20.3799783,2.38868235 18.2919276,3.18283382 Z" id="Shape" fill="#0375FF" fill-rule="nonzero"></path>
                <path d="M13.75,22.8842163 C16.0281746,22.8842163 19.25,22.7391534 19.25,18.5625 C19.25,14.3858466 16.0281746,12.375 13.75,12.375 C11.4718254,12.375 8.25,14.3858466 8.25,18.5625 C8.25,22.7391534 11.4718254,22.8842163 13.75,22.8842163 Z" id="Oval-7" fill="#3A4F5A"></path>
                <g id="Group-18" transform="translate(0.000000, 12.375000)">
                    <g id="Combined-Shape">
                        <use fill="#FFFFFF" fill-rule="evenodd" xlink:href="#path-1"></use>
                        <path stroke="#3A4F5A" stroke-width="1" d="M7.57823458,19.3743753 L9.78111755,13.1454689 L19.816911,11.4728367 C20.391591,11.3770567 20.8551136,10.9584447 21.0129743,10.4050182 L21.0445674,10.2942592 L21.1214329,10.2084841 C22.3263207,8.86393408 24.293141,6.4431611 27.0169667,2.95145789 C27.3274884,2.55339667 27.2925951,1.98630948 26.9355484,1.629254 L26.8390022,1.53266924 C26.4637399,1.15740688 25.8553194,1.15740688 25.480057,1.53266924 L19.2080388,7.8046875 L14.6265545,7.8046875 L16.8191649,6.84652418 C17.4950428,6.55116784 17.8586367,5.80061397 17.6643186,5.08149568 L17.5353777,4.60440028 C17.5252428,4.56810367 17.5252428,4.56810367 17.5138981,4.53216682 C17.2579001,3.74428577 16.411669,3.31310935 15.6237879,3.56910734 L5.63172639,6.81572314 C4.92211553,7.04628982 4.49241528,7.76259071 4.6156204,8.4902888 L4.64304794,8.65228665 L0.954167344,15.9638354 C0.595786379,16.6741647 0.854350275,17.5407327 1.54337382,17.9385406 L5.41406612,20.1732858 C5.49365423,20.219236 5.57729678,20.2577749 5.66393858,20.2884162 C6.44496225,20.564629 7.30202177,20.1553989 7.57823458,19.3743753 Z"></path>
                    </g>
                </g>
            </g>
        </g>
    </g>
</svg>