<?xml version="1.0" encoding="UTF-8"?>
<svg width="25px" height="25px" viewBox="0 0 25 25" version="1.1" xmlns="http://www.w3.org/2000/svg" xmlns:xlink="http://www.w3.org/1999/xlink">
    <!-- Generator: Sketch 48.2 (47327) - http://www.bohemiancoding.com/sketch -->
    <title>Group 10</title>
    <desc>Created with Sketch.</desc>
    <defs></defs>
    <g id="startup_pricing_v5" stroke="none" stroke-width="1" fill="none" fill-rule="evenodd" transform="translate(-1047.000000, -713.000000)">
        <g id="Group-20" transform="translate(718.000000, 711.000000)">
            <g id="Group-10" transform="translate(329.000000, 2.000000)">
                <g id="Group-8" fill="#394E59">
                    <g id="Group-19">
                        <g id="Group-7">
                            <g id="Group-4">
                                <path d="M0.961538462,7.35294118 L0.961538462,22.5384615 C0.961538462,23.3668887 1.63311134,24.0384615 2.46153846,24.0384615 L22.5384615,24.0384615 C23.3668887,24.0384615 24.0384615,23.3668887 24.0384615,22.5384615 L24.0384615,7.35294118 L24.8081841,7.35294118 L24.8081841,22.759904 C24.8081841,23.8644735 23.9127536,24.759904 22.8081841,24.759904 L2.19181586,24.759904 C1.08724636,24.759904 0.191815857,23.8644735 0.191815857,22.759904 L0.191815857,7.35294118 L0.961538462,7.35294118 Z" id="Combined-Shape"></path>
                                <path d="M11.620844,2.75684336 C11.0952833,3.04225029 10.741688,3.57569734 10.741688,4.18667467 C10.741688,5.09830916 11.5289111,5.83733493 12.5,5.83733493 C13.4710889,5.83733493 14.258312,5.09830916 14.258312,4.18667467 C14.258312,3.57569734 13.9047167,3.04225029 13.379156,2.75684336 L13.379156,0.37515006 L16.8957801,0.37515006 L16.8957801,2.75684336 C16.3702194,3.04225029 16.016624,3.57569734 16.016624,4.18667467 C16.016624,5.09830916 16.8038471,5.83733493 17.7749361,5.83733493 C18.746025,5.83733493 19.5332481,5.09830916 19.5332481,4.18667467 C19.5332481,3.57569734 19.1796527,3.04225029 18.6540921,2.75684336 L18.6540921,0.37515006 L22.8081841,0.37515006 C23.9127536,0.37515006 24.8081841,1.27058056 24.8081841,2.37515006 L24.8081841,7.66691292 L0.191815857,7.66691292 L0.191815857,2.37515006 C0.191815857,1.27058056 1.08724636,0.37515006 2.19181586,0.37515006 L6.34590793,0.37515006 L6.34590793,2.75684336 C5.82034726,3.04225029 5.46675192,3.57569734 5.46675192,4.18667467 C5.46675192,5.09830916 6.25397502,5.83733493 7.22506394,5.83733493 C8.19615285,5.83733493 8.98337596,5.09830916 8.98337596,4.18667467 C8.98337596,3.57569734 8.62978062,3.04225029 8.10421995,2.75684336 L8.10421995,0.37515006 L11.620844,0.37515006 L11.620844,2.75684336 Z" id="Combined-Shape"></path>
                            </g>
                        </g>
                    </g>
                </g>
                <path d="M16.9413244,16.5681621 L18.093293,17.5148579 C18.1765678,17.5674521 18.2043261,17.6726405 18.1626887,17.7646804 C17.9267433,18.4484051 17.5242483,19.0926841 17.0245993,19.6317748 C16.9552036,19.7106661 16.8580496,19.7369632 16.7608956,19.6975176 L15.3174652,19.2241697 C14.9566076,19.5002893 14.5541126,19.7238147 14.1238592,19.8815973 L13.8323973,21.3016409 C13.8185182,21.3936808 13.7352434,21.4725721 13.6380894,21.4857207 C13.2633526,21.5514634 12.8886159,21.5909091 12.5,21.5909091 C12.1113841,21.5909091 11.7366474,21.5514634 11.3619106,21.4857207 C11.2647566,21.4725721 11.1814818,21.3936808 11.1676027,21.3016409 L10.8761408,19.8815973 C10.4458874,19.7238147 10.0295133,19.5002893 9.68253481,19.2241697 L8.23910437,19.6975176 C8.1419504,19.7369632 8.04479643,19.7106661 7.97540073,19.6317748 C7.47575173,19.0926841 7.0732567,18.4484051 6.83731134,17.7646804 C6.79567393,17.6726405 6.82343221,17.5674521 6.90670704,17.5148579 L8.05867556,16.5681621 C8.01703815,16.3577853 8.00315901,16.1342599 8.00315901,15.9107345 C8.00315901,15.6872091 8.01703815,15.4636837 8.05867556,15.2533069 L6.90670704,14.3066111 C6.82343221,14.2540169 6.79567393,14.1488285 6.83731134,14.0567886 C7.0732567,13.3730639 7.47575173,12.7287848 7.97540073,12.1896942 C8.04479643,12.1108029 8.1419504,12.0845057 8.23910437,12.1239514 L9.68253481,12.5972993 C10.0295133,12.3211797 10.4458874,12.0976543 10.8761408,11.9398717 L11.1676027,10.519828 C11.1814818,10.4277882 11.2647566,10.3488968 11.3619106,10.3357483 C12.1113841,10.1911142 12.8886159,10.1911142 13.6380894,10.3357483 C13.7352434,10.3488968 13.8185182,10.4277882 13.8323973,10.519828 L14.1238592,11.9398717 C14.5541126,12.0976543 14.9566076,12.3211797 15.3174652,12.5972993 L16.7608956,12.1239514 C16.8580496,12.0845057 16.9552036,12.1108029 17.0245993,12.1896942 C17.5242483,12.7287848 17.9267433,13.3730639 18.1626887,14.0567886 C18.2043261,14.1488285 18.1765678,14.2540169 18.093293,14.3066111 L16.9413244,15.2533069 C16.9829619,15.4636837 16.996841,15.6872091 16.996841,15.9107345 C16.996841,16.1342599 16.9829619,16.3577853 16.9413244,16.5681621 Z M12.5,18.1818182 C13.7485971,18.1818182 14.7727273,17.1717172 14.7727273,15.9090909 C14.7727273,14.6604938 13.7485971,13.6363636 12.5,13.6363636 C11.2373737,13.6363636 10.2272727,14.6604938 10.2272727,15.9090909 C10.2272727,17.1717172 11.2373737,18.1818182 12.5,18.1818182 Z" id="settings" fill="#0375FF"></path>
            </g>
        </g>
    </g>
</svg>