<?xml version="1.0" encoding="UTF-8"?>
<svg width="31px" height="24px" viewBox="0 0 31 24" version="1.1" xmlns="http://www.w3.org/2000/svg" xmlns:xlink="http://www.w3.org/1999/xlink">
    <!-- Generator: Sketch 48.2 (47327) - http://www.bohemiancoding.com/sketch -->
    <title>Group 9</title>
    <desc>Created with Sketch.</desc>
    <defs></defs>
    <g id="startup_pricing_v5" stroke="none" stroke-width="1" fill="none" fill-rule="evenodd" transform="translate(-718.000000, -669.000000)">
        <g id="Group-12" transform="translate(718.000000, 669.000000)">
            <g id="Group-9">
                <g id="Group-2">
                    <path d="M11.9628072,2.43816048 L11.6666667,2.65584894 L11.3705261,2.43816048 C11.1992421,2.31225219 11.0074563,2.23004111 10.8115239,2.19935491 L1.47819053,0.73760361 C0.920724094,0.650295329 0.5,1.00512721 0.5,1.55555556 L0.5,20.2222222 C0.5,20.8339521 1.01603882,21.4308109 1.63292058,21.5274246 L10.9662539,22.9891759 C11.1524492,23.0183371 11.3246905,22.9984556 11.4723252,22.9361755 L11.6666667,22.854192 L11.8610081,22.9361755 C12.0086429,22.9984556 12.1808841,23.0183371 12.3670794,22.9891759 L21.7004128,21.5274246 C22.3172945,21.4308109 22.8333333,20.8339521 22.8333333,20.2222222 L22.8333333,1.55555556 C22.8333333,1.00512721 22.4126092,0.650295329 21.8551428,0.73760361 L12.5218095,2.19935491 C12.325877,2.23004111 12.1340912,2.31225219 11.9628072,2.43816048 Z" id="Combined-Shape" stroke="#3A4F5A"></path>
                    <path d="M14.5,1.98258966 L14.5,9.47997896 L16.9145233,6.50657132 L19.5250244,8.29013433 L19.5250244,1.18662963 L14.5,1.98258966 Z" id="Combined-Shape" stroke="#394F5A"></path>
                    <rect id="Rectangle-15" stroke="#3A4F5A" x="11.7000122" y="3.16666667" width="1" height="19"></rect>
                </g>
                <g id="Group-7" transform="translate(13.000000, 8.000000)">
                    <g id="Group-2">
                        <rect id="Rectangle-4" fill="#F3F8FE" x="2.24478719" y="4.75439662" width="15.1899996" height="4.51999998" rx="2.25999999"></rect>
                        <path d="M1.749053,4.65405196 L5.20739948,1.19570548 C5.98844806,0.414656901 7.25477802,0.414656901 8.0358266,1.19570548 L8.1626921,1.32257098 C8.94374069,2.10361957 8.94374069,3.36994952 8.1626921,4.15099811 L5.35010838,6.96358183 L7.86232346,9.47579691 C8.64337204,10.2568455 8.64337204,11.5231755 7.86232346,12.304224 L7.73545796,12.4310895 C6.95440937,13.2121381 5.68807942,13.2121381 4.90703083,12.4310895 L0.626939403,8.15099811 C-0.154109181,7.36994952 -0.154109181,6.10361957 0.626939403,5.32257098 L0.753804901,5.19570548 C1.03713785,4.91237254 1.3843312,4.73182136 1.749053,4.65405196 Z" id="Combined-Shape" fill="#F3F8FE"></path>
                        <path d="M5.52105417,5.75439662 L14.1731721,5.75439662 C14.8699426,5.75439662 15.4347868,6.31924076 15.4347868,7.01601131 C15.4347868,7.71278187 14.8699426,8.27762601 14.1731721,8.27762601 L5.49305254,8.27762601 L6.92172758,9.70630105 C7.41441877,10.1989922 7.41441877,10.9978025 6.92172758,11.4904937 C6.4290364,11.9831849 5.63022616,11.9831849 5.13753497,11.4904937 L1.56914974,7.92210844 C1.07645856,7.42941725 1.07645856,6.63060701 1.56914974,6.13791582 L5.13753497,2.5695306 C5.63022616,2.07683941 6.4290364,2.07683941 6.92172758,2.5695306 C7.41441877,3.06222178 7.41441877,3.86103202 6.92172758,4.35372321 L5.52105417,5.75439662 Z" id="Combined-Shape" fill="#0375FF"></path>
                    </g>
                </g>
            </g>
        </g>
    </g>
</svg>