<?xml version="1.0" encoding="UTF-8"?>
<svg width="96px" height="96px" viewBox="0 0 96 96" version="1.1" xmlns="http://www.w3.org/2000/svg" xmlns:xlink="http://www.w3.org/1999/xlink">
    <!-- Generator: Sketch 48.2 (47327) - http://www.bohemiancoding.com/sketch -->
    <title>Group 4 Copy 2</title>
    <desc>Created with Sketch.</desc>
    <defs></defs>
    <g id="Golden-Ticket-R2" stroke="none" stroke-width="1" fill="none" fill-rule="evenodd" transform="translate(-333.000000, -3337.000000)">
        <g id="Group-4-Copy-2" transform="translate(333.000000, 3337.000000)">
            <polygon id="Rectangle-4" fill="#111111" points="0 0 96 0 85.03125 96 0 96"></polygon>
            <path d="M49.2573335,67.768 C41.0653335,67.768 34.9853335,64.888 31.5933335,61.048 L37.1613335,53.56 C40.2973335,56.568 45.0973335,58.04 48.8093335,58.04 C53.5453335,58.04 55.9773335,56.248 55.9773335,53.88 C55.9773335,51.448 54.1853335,50.232 48.3613335,50.232 C46.5053335,50.232 43.2413335,50.296 42.6013335,50.36 L42.6013335,40.568 C43.4333335,40.632 46.7613335,40.632 48.3613335,40.632 C52.7773335,40.632 55.2733335,39.544 55.2733335,37.304 C55.2733335,34.616 52.2013335,33.4 48.1053335,33.4 C44.2013335,33.4 40.4893335,34.808 37.4813335,37.496 L32.1693335,30.584 C35.8173335,26.552 41.3853335,23.672 49.2573335,23.672 C60.1373335,23.672 66.2173335,28.344 66.2173335,35.384 C66.2173335,40.376 61.9293335,44.152 56.8733335,44.984 C61.4173335,45.432 66.9213335,48.952 66.9213335,55.096 C66.9213335,62.584 59.8813335,67.768 49.2573335,67.768 Z" id="3" fill="#FFFFFF"></path>
        </g>
    </g>
</svg>