<?xml version="1.0" encoding="UTF-8"?>
<svg width="96px" height="96px" viewBox="0 0 96 96" version="1.1" xmlns="http://www.w3.org/2000/svg" xmlns:xlink="http://www.w3.org/1999/xlink">
    <!-- Generator: Sketch 48.2 (47327) - http://www.bohemiancoding.com/sketch -->
    <title>Group 4 Copy</title>
    <desc>Created with Sketch.</desc>
    <defs></defs>
    <g id="Golden-Ticket-R2" stroke="none" stroke-width="1" fill="none" fill-rule="evenodd" transform="translate(-333.000000, -3084.000000)">
        <g id="Group-4-Copy" transform="translate(333.000000, 3084.000000)">
            <polygon id="Rectangle-4" fill="#111111" points="0 0 83.3203125 0 96 96 0 96"></polygon>
            <path d="M66.6973335,67 L33.2253335,67 L33.2253335,58.424 C51.7213335,45.048 55.1773335,42.104 55.1773335,37.816 C55.1773335,34.936 52.4253335,33.4 49.2893335,33.4 C44.5533335,33.4 40.9693335,35.192 37.8973335,38.072 L31.8173335,30.776 C36.3613335,25.784 43.1453335,23.672 49.0973335,23.672 C59.1453335,23.672 66.3773335,29.304 66.3773335,37.816 C66.3773335,44.408 61.7053335,49.976 51.0813335,57.4 L66.6973335,57.4 L66.6973335,67 Z" id="2" fill="#FFFFFF"></path>
        </g>
    </g>
</svg>