<?xml version="1.0" encoding="UTF-8"?>
<svg width="347px" height="457px" viewBox="0 0 347 457" version="1.1" xmlns="http://www.w3.org/2000/svg" xmlns:xlink="http://www.w3.org/1999/xlink">
    <!-- Generator: Sketch 47.1 (45422) - http://www.bohemiancoding.com/sketch -->
    <title>Group 6</title>
    <desc>Created with Sketch.</desc>
    <defs></defs>
    <g id="Page-1" stroke="none" stroke-width="1" fill="none" fill-rule="evenodd" opacity="0.140398551">
        <g id="Inner-circle-R4" transform="translate(-899.000000, -3454.000000)">
            <g id="Group-6" transform="translate(194.000000, 3351.000000)">
                <g transform="translate(933.500000, 332.500000) rotate(-330.000000) translate(-933.500000, -332.500000) translate(709.000000, 108.000000)">
                    <g id="Group-5">
                        <path d="M225.437636,394.161402 C132.254074,394.161402 56.7138708,318.621199 56.7138708,225.437636 C56.7138708,132.254074 132.254074,56.7138708 225.437636,56.7138708 C318.621199,56.7138708 394.161402,132.254074 394.161402,225.437636 C394.161402,318.621199 318.621199,394.161402 225.437636,394.161402 Z" id="Oval" stroke="#222222" stroke-width="8" stroke-dasharray="1,1" fill-rule="nonzero"></path>
                        <path d="M224.01979,448.039579 C100.297076,448.039579 0,347.742503 0,224.01979 C0,100.297076 100.297076,0 224.01979,0 C347.742503,0 448.039579,100.297076 448.039579,224.01979 C448.039579,347.742503 347.742503,448.039579 224.01979,448.039579 Z" id="Oval-Copy" stroke="#222222" stroke-width="8" stroke-dasharray="1,1" fill-rule="nonzero"></path>
                        <path d="M215.14532,407.839968 C211.933184,407.839968 209.251493,409.194655 207.424407,411.256136 L207.424407,418.324068 L216.618776,418.324068 L216.618776,416.144789 L209.840876,416.144789 L209.840876,412.169077 C210.842826,411.167786 212.787789,410.048697 215.14532,410.048697 C219.447813,410.048697 222.718887,413.376515 222.718887,418.029571 C222.718887,422.741526 219.447813,426.010445 215.14532,426.010445 C212.787789,426.010445 210.69548,424.891356 209.457777,423.301071 L207.512814,424.537959 C209.222024,426.658339 211.638493,428.189725 215.14532,428.189725 C220.744455,428.189725 225.253232,424.155113 225.253232,418.029571 C225.253232,411.933479 220.744455,407.839968 215.14532,407.839968 Z M197.446953,405.83947 C202.723508,406.382338 205.097497,409.794356 204.602558,414.598716 L203.371248,426.551029 L200.908856,426.297691 L202.13413,414.403968 C202.502316,410.829992 200.829273,408.378251 197.223627,408.007292 C193.617981,407.636332 191.450865,409.692987 191.082679,413.266963 L189.857404,425.160685 L187.395012,424.907347 L188.623304,412.98433 C189.124279,408.121379 192.141084,405.293587 197.446953,405.83947 Z M170.281589,400.455384 L173.022328,401.02591 L173.829056,405.676038 L183.407217,407.669877 L186.004775,403.728403 L188.745514,404.298929 L176.97656,421.913634 L174.005022,421.295064 L170.281589,400.455384 Z M174.082759,407.924825 L176.016024,419.156727 L182.247276,409.624392 L174.082759,407.924825 Z M155.417248,394.718684 L158.171065,395.588106 L160.567456,404.529057 L164.332879,405.717859 L166.685418,398.276218 L169.017732,399.012566 L163.096436,417.743034 L155.56559,415.36543 C152.137369,414.283088 150.356999,411.312012 151.448932,407.857968 C152.514232,404.488169 155.432462,403.371127 158.060598,403.953794 L155.417248,394.718684 Z M158.767291,406.21528 C156.547377,405.514419 154.53136,406.514806 153.865547,408.620931 C153.190856,410.755137 154.283613,412.675243 156.503527,413.376104 L161.421057,414.928644 L163.684821,407.76782 L158.767291,406.21528 Z M137.665592,386.431911 L140.245466,387.518316 L140.142641,392.236692 L149.158621,396.033389 L152.46592,392.66444 L155.045794,393.750845 L140.107949,408.776102 L137.310823,407.598212 L137.665592,386.431911 Z M139.959032,394.492276 L139.695651,405.886087 L147.64434,397.728617 L139.959032,394.492276 Z M122.404667,376.983752 L124.47445,378.111701 L127.032967,397.351347 L134.538773,383.596354 L136.686173,384.766601 L127.275698,402.012053 L125.076553,400.813607 L122.492203,381.928866 L115.141593,395.399451 L112.994192,394.229204 L122.404667,376.983752 Z M113.916384,369.961348 L115.925249,371.355806 L105.95587,385.698841 L111.062742,389.243787 L109.818672,391.033643 L97.5718589,382.532492 L98.8159298,380.742636 L103.947005,384.304383 L113.916384,369.961348 Z M97.5218093,356.175673 L107.431244,364.394991 L94.8776996,379.509954 L84.968265,371.290636 L86.3610121,369.613714 L94.3883344,376.271925 L98.4348292,371.399786 L90.5662392,364.873234 L91.9589863,363.196311 L99.8275762,369.722863 L104.156385,364.510807 L96.1290623,357.852596 L97.5218093,356.175673 Z M86.6887242,344.640654 L95.8624493,353.672727 L82.067565,367.665505 L72.8938399,358.633431 L74.4243068,357.081009 L81.8556539,364.397609 L86.3022808,359.887193 L79.0178813,352.715272 L80.5483482,351.16285 L87.8327477,358.334771 L92.5896044,353.509676 L85.1582573,346.193076 L86.6887242,344.640654 Z M49.8801474,275.610525 C51.7809494,280.873674 49.4586482,286.501565 43.7208062,288.571074 C37.9552451,290.650582 32.6270903,287.782037 30.7262882,282.518888 C29.5357859,279.222495 30.15683,276.431154 31.5723563,274.104679 L33.3968347,275.513031 C32.3201837,277.216335 31.9771597,279.563001 32.7774974,281.779064 C34.2381137,285.823378 38.4253962,287.788428 42.8604431,286.188807 C47.240052,284.609181 49.2618354,280.404662 47.8012191,276.360348 C47.0008814,274.144285 45.2872791,272.695943 44.0046881,272.094036 L40.2626172,273.443716 L42.5635881,279.814897 L40.5123789,280.554721 L37.3910618,271.912077 L44.0436323,269.512645 C46.6042271,270.53026 48.7896872,272.59114 49.8801474,275.610525 Z M45.6263042,257.362985 C46.8697833,262.516223 44.4400063,265.888792 39.7417387,267.020993 L28.0533657,269.837689 L27.4730755,267.432845 L39.1041525,264.629956 C42.5992052,263.787709 44.356065,261.395235 43.5063542,257.873856 C42.6566434,254.352476 39.9948072,252.994538 36.4997545,253.836786 L24.8686774,256.639674 L24.2883872,254.23483 L35.9481122,251.425037 C40.7036757,250.279029 44.3759168,252.181117 45.6263042,257.362985 Z M41.6769408,229.955956 L42.0496468,232.728776 L37.9293011,235.035018 L39.2318103,244.725293 L43.8150961,245.863186 L44.187802,248.636005 L23.6515087,243.399612 L23.247417,240.393291 L41.6769408,229.955956 Z M35.8913607,236.021726 L25.9340039,241.577791 L37.0016322,244.28181 L35.8913607,236.021726 Z M42.1169754,214.034907 L42.2158178,216.919288 L34.5815253,222.160477 L34.7166772,226.104427 L42.5214223,225.837326 L42.6051358,228.28022 L22.9607395,228.952511 L22.6904358,221.06461 C22.5673871,217.473849 24.7758764,214.805173 28.3984562,214.681197 C31.9326805,214.560246 33.9602172,216.936617 34.2876144,219.606908 L42.1169754,214.034907 Z M32.3901865,221.027325 C32.3105074,218.70216 30.6940856,217.136795 28.4851955,217.212389 C26.2468535,217.288992 24.800281,218.959182 24.87996,221.284347 L25.0564643,226.435029 L32.5666908,226.178006 L32.3901865,221.027325 Z M43.9456317,194.560726 L43.7881521,197.35402 L39.3064004,198.84197 L38.7560504,208.603796 L43.0421958,210.58541 L42.8847161,213.378704 L23.7058427,204.364328 L23.8765838,201.33581 L43.9456317,194.560726 Z M37.1187756,199.426713 L26.2912946,203.00558 L36.6496519,207.747788 L37.1187756,199.426713 Z M47.7015556,177.018358 L28.2841738,173.967475 L27.9042785,176.38214 L43.0713788,178.765213 L26.1466906,187.553598 L25.7576411,190.026447 L45.175023,193.077329 L45.5549183,190.662665 L30.0675912,188.229277 L47.3353915,179.345745 L47.7015556,177.018358 Z M51.4742571,166.661293 L50.8348785,169.020629 L33.9673052,164.455548 L32.341897,170.453378 L30.2370059,169.883706 L34.1349043,155.500283 L36.2397954,156.069956 L34.6066838,162.096212 L51.4742571,166.661293 Z M58.9683082,146.633858 L54.5405105,158.718773 L36.0829546,151.965008 L40.5107522,139.880093 L42.5585171,140.629386 L38.971697,150.418997 L44.921284,152.595998 L48.4371783,142.999967 L50.4849431,143.74926 L46.9690488,153.345291 L53.3337233,155.674176 L56.9205434,145.884565 L58.9683082,146.633858 Z M66.2338939,132.579275 L60.7811736,144.238252 L42.9741623,135.921162 L48.4268826,124.262185 L50.402473,125.18492 L45.9853953,134.629492 L51.7252865,137.310413 L56.0550209,128.052599 L58.0306114,128.975334 L53.7008769,138.233149 L59.8412257,141.101111 L64.2583035,131.656539 L66.2338939,132.579275 Z M119.078118,74.8392206 C114.753029,78.392708 108.668824,78.0921413 104.794841,73.3831753 C100.902143,68.6514608 101.821037,62.6734063 106.146126,59.1199189 C108.854997,56.8943137 111.694789,56.543632 114.362551,57.0967844 L113.646177,59.286596 C111.679501,58.8436779 109.352118,59.3071122 107.531028,60.8033174 C104.207539,63.5338919 103.75813,68.1349743 106.752513,71.7747547 C109.709466,75.3690379 114.351011,75.8636481 117.6745,73.1330736 C119.49559,71.6368683 120.286824,69.5380512 120.42448,68.1287106 L117.89797,65.0576459 L112.662336,69.3592359 L111.277434,67.6758375 L118.379685,61.8406371 L122.871259,67.3003077 C122.769957,70.0522707 121.559352,72.800641 119.078118,74.8392206 Z M134.822853,64.7089096 C130.384981,67.6125806 126.389527,66.4603492 123.742216,62.4196191 L117.156223,52.367071 L119.22723,51.0120245 L125.780938,61.0152954 C127.750279,64.0212044 130.595789,64.8698285 133.628334,62.8856533 C136.660879,60.9014781 137.045154,57.9396266 135.075813,54.9337176 L128.522104,44.9304468 L130.593111,43.5754003 L137.162962,53.6033097 C139.842557,57.693317 139.285379,61.789107 134.822853,64.7089096 Z M159.309048,51.7657432 L156.821935,53.0501395 L153.261505,49.9495471 L144.5697,54.4381742 L145.040875,59.1341221 L142.553762,60.4185184 L140.572459,39.3310032 L143.269013,37.9384472 L159.309048,51.7657432 Z M151.645574,48.3641354 L143.0576,40.8653306 L144.236596,52.1902844 L151.645574,48.3641354 Z M174.492971,46.8367515 L171.80714,47.8975198 L164.305158,42.4688827 L160.632695,43.9193209 L163.50299,51.177242 L161.228256,52.0756478 L154.003778,33.8075973 L161.348703,30.9067209 C164.692288,29.5861727 167.948896,30.7699398 169.281146,34.1387108 C170.580902,37.4253165 169.021034,40.1313555 166.613698,41.3354616 L174.492971,46.8367515 Z M164.638136,40.0257401 C166.803245,39.170631 167.73654,37.1237176 166.924192,35.069589 C166.101013,32.988072 164.041263,32.1865937 161.876155,33.0417028 L157.080028,34.9359318 L159.84201,41.9199691 L164.638136,40.0257401 Z M193.467548,42.0867037 L190.779897,42.8698414 L187.881625,39.1436204 L178.488994,41.8804806 L178.048921,46.5794411 L175.36127,47.3625788 L177.469489,26.2873575 L180.383468,25.4382714 L193.467548,42.0867037 Z M186.600464,37.2775789 L179.613497,28.2700921 L178.594094,39.610505 L186.600464,37.2775789 Z M211.275692,39.8049812 L208.957542,40.2338079 L194.831964,26.9134401 L197.685541,42.3189773 L195.280462,42.763885 L191.702763,23.4490478 L194.165796,22.9934195 L208.087487,36.0220534 L205.292913,20.9350517 L207.697993,20.4901441 L211.275692,39.8049812 Z M222.311109,39.9061334 L220.999044,22.4917425 L227.228866,22.0229828 L227.065135,19.8498548 L212.195842,20.9686869 L212.359574,23.1418149 L218.56001,22.6752663 L219.872075,40.0896572 L222.311109,39.9061334 Z M243.718144,40.2538643 L243.73886,38.0746833 L233.307257,37.9756497 L233.371644,31.2025198 L243.596972,31.2995951 L243.617687,29.1204141 L233.392359,29.0233388 L233.452546,22.6919347 L243.884149,22.7909683 L243.904865,20.6117874 L231.027434,20.489534 L230.840714,40.1316109 L243.718144,40.2538643 Z M259.389765,42.3487617 L259.59468,40.179125 L249.208766,39.1995002 L249.845665,32.456035 L260.026208,33.4162887 L260.231124,31.246652 L250.05058,30.2863983 L250.645942,23.9827243 L261.031857,24.9623491 L261.236772,22.7927124 L248.415742,21.5834016 L246.568735,41.1394508 L259.389765,42.3487617 Z M331.529041,72.7839357 C326.735223,69.8928097 324.99142,64.059947 328.143302,58.84065 C331.310411,53.5961389 337.256724,52.4699388 342.050541,55.3610648 C345.052984,57.1718227 346.330118,59.7306996 346.697187,62.4286615 L344.392454,62.4833635 C344.154998,60.4827167 342.94223,58.4442167 340.923781,57.2269005 C337.240111,55.0052984 332.749373,56.1150256 330.313135,60.1492649 C327.907351,64.1330762 328.987357,68.6712839 332.671027,70.892886 C334.689476,72.1102023 336.933303,72.1563563 338.308845,71.8164399 L340.36442,68.4125505 L334.561378,64.9127663 L335.688138,63.0469307 L343.56009,67.7944639 L339.905734,73.8458229 C337.275582,74.6673825 334.279178,74.4425291 331.529041,72.7839357 Z M346.322534,84.2401688 C342.104506,81.0258672 341.860608,76.87727 344.791124,73.036709 L352.081677,63.4821426 L354.050091,64.98215 L346.795276,74.4898803 C344.615257,77.346883 344.762521,80.3107933 347.644841,82.5072327 C350.52716,84.7036722 353.449684,84.0790592 355.629702,81.2220565 L362.884517,71.7143262 L364.852931,73.2143336 L357.580247,82.745482 C354.613992,86.6328791 350.563997,87.4723277 346.322534,84.2401688 Z M366.699826,102.984326 L364.658188,101.070048 L366.394596,96.6811421 L359.259607,89.9912455 L354.987269,92.0024174 L352.945631,90.0881398 L372.175795,81.1835606 L374.389361,83.2590406 L366.699826,102.984326 Z M367.350754,94.6297307 L371.557929,84.0367511 L361.268821,88.9271983 L367.350754,94.6297307 Z M376.44155,115.628427 L374.542136,113.4544 L377.149235,104.572526 L374.552077,101.599877 L368.669456,106.732666 L367.060768,104.891398 L381.867213,91.9722668 L387.06153,97.9175637 C389.426107,100.624005 389.400216,104.086975 386.669792,106.469363 C384.005964,108.793645 380.932171,108.230732 378.99084,106.366946 L376.44155,115.628427 Z M379.564384,104.068129 C381.095544,105.820661 383.338066,106.01422 385.002959,104.561544 C386.69005,103.089499 386.756179,100.881563 385.225018,99.1290312 L381.833207,95.246841 L376.172572,100.185939 L379.564384,104.068129 Z M387.299349,131.889263 L385.658572,129.622403 L388.197297,125.64283 L382.463212,117.720752 L377.886469,118.884648 L376.245691,116.617788 L396.817913,111.524185 L398.596861,113.981938 L387.299349,131.889263 Z M389.525835,123.810172 L395.669172,114.208227 L384.638046,117.057317 L389.525835,123.810172 Z M395.446257,147.864722 L394.261821,145.827668 L402.057844,128.051183 L388.502503,135.922491 L387.273651,133.809047 L404.268787,123.940321 L405.52725,126.104691 L397.93748,143.591107 L411.212541,135.882552 L412.441393,137.995996 L395.446257,147.864722 Z M399.068124,158.305343 L398.075386,156.0714 L414.046489,148.983376 L411.522781,143.304315 L413.515802,142.419806 L419.567917,156.038785 L417.574896,156.923294 L415.039227,151.217319 L399.068124,158.305343 Z M405.892863,178.568211 L401.701365,166.39943 L420.287011,160.006095 L424.478509,172.174876 L422.416533,172.884182 L419.021132,163.026634 L413.030257,165.087454 L416.358517,174.750078 L414.296541,175.459384 L410.968281,165.796759 L404.559438,168.001358 L407.954839,177.858906 L405.892863,178.568211 Z M409.121758,194.04848 L405.995581,181.563905 L425.063547,176.795514 L428.189725,189.280089 L426.074238,189.809116 L423.54182,179.695753 L417.395474,181.232791 L419.877816,191.146172 L417.76233,191.675199 L415.279987,181.761817 L408.704826,183.40609 L411.237245,193.519453 L409.121758,194.04848 Z M404.596306,272.167113 C403.959129,275.313343 404.755817,278.208735 406.415233,280.407261 L413.34728,281.809294 L415.171124,272.80357 L413.033743,272.371277 L411.689242,279.010111 L407.789966,278.221468 C407.006679,277.041453 406.294918,274.914408 406.76257,272.605248 C407.616036,268.391031 411.528742,265.847196 416.09234,266.770201 C420.713704,267.70489 423.270908,271.557289 422.417442,275.771506 C421.949789,278.080666 420.437174,279.908057 418.631946,280.804909 L419.459241,282.955321 C421.877903,281.70179 423.85919,279.638675 424.554823,276.2038 C425.665498,270.719545 422.60284,265.502949 416.595066,264.287854 C410.616176,263.0786 405.70698,266.682858 404.596306,272.167113 Z M398.755992,289.955431 C400.370577,284.906014 404.199386,283.284349 408.802999,284.754446 L420.25589,288.411761 L419.502417,290.768156 L408.105668,287.128769 C404.681029,286.03516 401.936532,287.168333 400.833232,290.618768 C399.729933,294.069203 401.299371,296.610885 404.72401,297.704493 L416.120759,301.34388 L415.367286,303.700275 L403.942466,300.051924 C399.282711,298.563899 397.132437,295.032901 398.755992,289.955431 Z M387.895486,315.40595 L389.018043,312.842987 L393.737666,313.010736 L397.66071,304.053854 L394.335423,300.702636 L395.457981,298.139673 L410.28593,313.273251 L409.068841,316.052042 L387.895486,315.40595 Z M395.991993,313.225279 L407.388605,313.645425 L399.336033,305.590347 L395.991993,313.225279 Z M379.216634,328.78101 L380.633936,326.26639 L389.88228,325.759927 L391.820223,322.321568 L385.016001,318.491593 L386.216369,316.361864 L403.342467,326.001838 L399.466581,332.878555 C397.702185,336.009001 394.426754,337.139714 391.268568,335.362028 C388.187411,333.6277 387.693142,330.54409 388.803797,328.093463 L379.216634,328.78101 Z M391.163698,327.867012 C390.021179,329.894104 390.586599,332.071365 392.512322,333.15532 C394.463722,334.253728 396.568638,333.579551 397.711156,331.552459 L400.242052,327.062065 L393.694594,323.376618 L391.163698,327.867012 Z M367.470769,344.449575 L369.06314,342.148499 L373.663521,343.215273 L379.228439,335.173618 L376.60595,331.248665 L378.198321,328.947589 L389.856022,346.636023 L388.129557,349.130874 L367.470769,344.449575 Z M375.835165,343.856753 L386.940956,346.447523 L380.578755,337.001969 L375.835165,343.856753 Z M355.125405,357.442531 L356.652297,355.647453 L376.021941,357.066032 L364.076808,346.91889 L365.660959,345.056498 L380.637281,357.778572 L379.014959,359.685842 L359.987731,358.36488 L371.685878,368.302213 L370.101727,370.164605 L355.125405,357.442531 Z M346.510124,364.33746 L348.284803,362.655379 L360.310484,375.32636 L364.822017,371.050226 L366.322692,372.631428 L355.503565,382.886041 L354.002889,381.30484 L358.535805,377.00844 L346.510124,364.33746 Z M329.689341,377.567561 L339.755097,369.540186 L352.015483,384.893587 L341.949727,392.920962 L340.589505,391.217586 L348.743458,384.714861 L344.791459,379.765864 L336.798743,386.140004 L335.43852,384.436628 L343.431237,378.062488 L339.203517,372.768212 L331.049564,379.270937 L329.689341,377.567561 Z M316.187029,385.820336 L326.901172,378.680092 L337.806623,395.022484 L327.092481,402.162728 L325.882581,400.349629 L334.561772,394.565541 L331.046521,389.297754 L322.538953,394.967467 L321.329052,393.154368 L329.836621,387.484655 L326.07612,381.849347 L317.396929,387.633435 L316.187029,385.820336 Z" id="Guarantee-Guarantee" fill="#222222" transform="translate(225.437636, 224.019790) scale(-1, -1) translate(-225.437636, -224.019790) "></path>
                    </g>
                    <path d="M142.099805,223.943837 L142.099805,168.316791 L122.107277,168.316791 L110.479823,199.007575 L98.7687183,168.316791 L78.7761898,168.316791 L78.7761898,223.943837 L93.1641183,223.943837 L93.1641183,187.164935 L107.301094,223.943837 L113.658551,223.943837 L127.711877,187.164935 L127.711877,223.943837 L142.099805,223.943837 Z M176.543,224.944624 C159.478248,224.944624 146.679684,213.101984 146.679684,196.172013 C146.679684,179.242043 159.478248,167.399403 176.543,167.399403 C193.607753,167.399403 206.322666,179.242043 206.322666,196.172013 C206.322666,213.101984 193.607753,224.944624 176.543,224.944624 Z M176.543,212.267995 C185.744582,212.267995 191.683785,205.179091 191.683785,196.172013 C191.683785,187.081537 185.744582,180.076032 176.543,180.076032 C167.341418,180.076032 161.318564,187.081537 161.318564,196.172013 C161.318564,205.179091 167.341418,212.267995 176.543,212.267995 Z M262.849658,223.943837 L262.849658,168.316791 L248.378079,168.316791 L248.378079,198.924176 L225.792378,168.316791 L210.986195,168.316791 L210.986195,223.943837 L225.374124,223.943837 L225.374124,191.751873 L248.963634,223.943837 L262.849658,223.943837 Z M311.178878,223.943837 L270.273662,223.943837 L270.273662,168.316791 L311.178878,168.316791 L311.178878,180.826621 L284.661591,180.826621 L284.661591,189.500104 L310.593322,189.500104 L310.593322,202.009934 L284.661591,202.009934 L284.661591,211.434007 L311.178878,211.434007 L311.178878,223.943837 Z M346.542231,223.943837 L332.154302,223.943837 L332.154302,201.509541 L310.990663,168.316791 L327.218908,168.316791 L339.348267,188.832913 L351.310323,168.316791 L367.622219,168.316791 L346.542231,201.509541 L346.542231,223.943837 Z M149.241488,281.28056 L116.617696,281.28056 L116.617696,225.653514 L148.237679,225.653514 C159.363228,225.653514 164.549574,232.825817 164.549574,239.831322 C164.549574,246.753428 160.283386,251.423765 155.013389,252.591349 C160.952592,253.508737 165.637034,259.17986 165.637034,266.185365 C165.637034,274.275055 160.199736,281.28056 149.241488,281.28056 Z M144.9753,246.836827 C147.903076,246.836827 149.910694,245.252248 149.910694,242.500086 C149.910694,239.831322 147.903076,238.163345 144.9753,238.163345 L131.005625,238.163345 L131.005625,246.836827 L144.9753,246.836827 Z M145.477204,268.77073 C148.906885,268.77073 150.998153,267.019354 150.998153,264.016994 C150.998153,261.264831 148.990536,259.346657 145.477204,259.346657 L131.005625,259.346657 L131.005625,268.77073 L145.477204,268.77073 Z M225.091803,281.28056 L208.779907,281.28056 L206.019432,273.274269 L184.019286,273.274269 L181.258811,281.28056 L164.946915,281.28056 L185.943253,225.653514 L204.095465,225.653514 L225.091803,281.28056 Z M202.087847,260.764438 L195.061184,239.831322 L187.950871,260.764438 L202.087847,260.764438 Z M251.253574,282.281347 C234.105171,282.281347 221.055654,270.605505 221.055654,253.508737 C221.055654,236.328569 234.105171,224.736126 251.253574,224.736126 C264.721344,224.736126 271.998959,232.325424 275.595941,239.581125 L263.21563,245.502445 C261.375314,241.082305 256.607221,237.412755 251.253574,237.412755 C242.135642,237.412755 235.694535,244.334861 235.694535,253.508737 C235.694535,262.599213 242.135642,269.604718 251.253574,269.604718 C256.607221,269.604718 261.375314,265.935168 263.21563,261.515028 L275.595941,267.352949 C271.998959,274.441853 264.721344,282.281347 251.253574,282.281347 Z M329.613411,281.28056 L306.776757,251.673961 L328.4423,225.653514 L310.708342,225.653514 L293.559939,248.504804 L293.559939,225.653514 L279.17201,225.653514 L279.17201,281.28056 L293.559939,281.28056 L293.559939,265.017781 L297.324223,260.347444 L311.963103,281.28056 L329.613411,281.28056 Z" id="Money-Back" fill="#222222"></path>
                </g>
            </g>
        </g>
    </g>
</svg>