<?xml version="1.0" encoding="UTF-8"?>
<svg width="156px" height="156px" viewBox="0 0 156 156" version="1.1" xmlns="http://www.w3.org/2000/svg" xmlns:xlink="http://www.w3.org/1999/xlink">
    <!-- Generator: Sketch 48.2 (47327) - http://www.bohemiancoding.com/sketch -->
    <title>Group 28</title>
    <desc>Created with Sketch.</desc>
    <defs>
        <path d="M1.42108547e-14,93.2893219 L93.2893219,-1.13686838e-13 L148,-1.0658141e-13 L5.32907052e-15,148 L0,93.2893219 Z" id="path-1"></path>
        <filter x="-4.7%" y="-3.4%" width="109.5%" height="109.5%" filterUnits="objectBoundingBox" id="filter-2">
            <feOffset dx="0" dy="2" in="SourceAlpha" result="shadowOffsetOuter1"></feOffset>
            <feGaussianBlur stdDeviation="2" in="shadowOffsetOuter1" result="shadowBlurOuter1"></feGaussianBlur>
            <feColorMatrix values="0 0 0 0 0.290196078   0 0 0 0 0.290196078   0 0 0 0 0.290196078  0 0 0 0.4 0" type="matrix" in="shadowBlurOuter1"></feColorMatrix>
        </filter>
    </defs>
    <g id="startup_pricing_v6" stroke="none" stroke-width="1" fill="none" fill-rule="evenodd" transform="translate(-1211.000000, -185.000000)">
        <g id="Group-28" transform="translate(1217.000000, 189.000000)">
            <g id="stripe_back">
                <rect id="Rectangle-14" fill="#1A5CAC" x="142" y="118" width="6" height="30"></rect>
                <rect id="Rectangle-14" fill="#5F52E0" x="0" y="0" width="54" height="6"></rect>
            </g>
            <g id="stripe_front">
                <g id="stripe" transform="translate(74.000000, 74.000000) rotate(-270.000000) translate(-74.000000, -74.000000) ">
                    <use fill="black" fill-opacity="1" filter="url(#filter-2)" xlink:href="#path-1"></use>
                    <use fill="#0375FF" fill-rule="evenodd" xlink:href="#path-1"></use>
                </g>
                <path d="M32.2955331,64.2444264 C31.9035331,64.2444264 31.6795331,64.0204264 31.6795331,63.6284264 L31.6795331,55.4244264 C31.6795331,55.1164264 31.9315331,54.8504264 32.2675331,54.8504264 C32.5755331,54.8504264 32.8415331,55.1164264 32.8415331,55.4244264 L32.8415331,63.2084264 L36.7195331,63.2084264 C36.9995331,63.2084264 37.2515331,63.4464264 37.2515331,63.7264264 C37.2515331,64.0064264 36.9995331,64.2444264 36.7195331,64.2444264 L32.2955331,64.2444264 Z M39.2955331,56.1104264 C38.9175331,56.1104264 38.5955331,55.8024264 38.5955331,55.4104264 C38.5955331,55.0184264 38.9175331,54.6964264 39.2955331,54.6964264 C39.6875331,54.6964264 40.0095331,55.0184264 40.0095331,55.4104264 C40.0095331,55.8024264 39.6875331,56.1104264 39.2955331,56.1104264 Z M39.2955331,64.3004264 C39.0155331,64.3004264 38.7775331,64.0624264 38.7775331,63.7824264 L38.7775331,57.9444264 C38.7775331,57.6644264 39.0155331,57.4264264 39.3095331,57.4264264 C39.5895331,57.4264264 39.8275331,57.6644264 39.8275331,57.9444264 L39.8275331,63.7824264 C39.8275331,64.0624264 39.5895331,64.3004264 39.2955331,64.3004264 Z M49.2495331,57.3144264 C50.4815331,57.3144264 51.1395331,58.0004264 51.1395331,59.3584264 L51.1395331,63.7824264 C51.1395331,64.0624264 50.8875331,64.3004264 50.6075331,64.3004264 C50.3275331,64.3004264 50.0895331,64.0624264 50.0895331,63.7824264 L50.0895331,59.6524264 C50.0895331,58.7984264 49.7115331,58.2524264 48.8435331,58.2524264 C48.1435331,58.2524264 47.4015331,58.7564264 47.0515331,59.2884264 L47.0515331,63.7824264 C47.0515331,64.0624264 46.8135331,64.3004264 46.5335331,64.3004264 C46.2535331,64.3004264 46.0015331,64.0624264 46.0015331,63.7824264 L46.0015331,59.6524264 C46.0015331,58.7984264 45.6375331,58.2524264 44.7555331,58.2524264 C44.0695331,58.2524264 43.3415331,58.7564264 42.9775331,59.3024264 L42.9775331,63.7824264 C42.9775331,64.0624264 42.7395331,64.3004264 42.4595331,64.3004264 C42.1655331,64.3004264 41.9275331,64.0624264 41.9275331,63.7824264 L41.9275331,57.9444264 C41.9275331,57.6644264 42.1655331,57.4264264 42.4455331,57.4264264 C42.7395331,57.4264264 42.9775331,57.6644264 42.9775331,57.9444264 L42.9775331,58.4624264 C43.2435331,58.0424264 44.1535331,57.3144264 45.1615331,57.3144264 C46.1975331,57.3144264 46.7855331,57.8744264 46.9815331,58.5744264 C47.3595331,57.9584264 48.2695331,57.3144264 49.2495331,57.3144264 Z M53.7575331,56.1104264 C53.3795331,56.1104264 53.0575331,55.8024264 53.0575331,55.4104264 C53.0575331,55.0184264 53.3795331,54.6964264 53.7575331,54.6964264 C54.1495331,54.6964264 54.4715331,55.0184264 54.4715331,55.4104264 C54.4715331,55.8024264 54.1495331,56.1104264 53.7575331,56.1104264 Z M53.7575331,64.3004264 C53.4775331,64.3004264 53.2395331,64.0624264 53.2395331,63.7824264 L53.2395331,57.9444264 C53.2395331,57.6644264 53.4775331,57.4264264 53.7715331,57.4264264 C54.0515331,57.4264264 54.2895331,57.6644264 54.2895331,57.9444264 L54.2895331,63.7824264 C54.2895331,64.0624264 54.0515331,64.3004264 53.7575331,64.3004264 Z M58.8675331,63.3484264 C59.1335331,63.3484264 59.3155331,63.5304264 59.3155331,63.7964264 C59.3155331,63.9924264 59.2175331,64.1184264 59.0495331,64.1884264 C58.8115331,64.3284264 58.5175331,64.4124264 58.0975331,64.4124264 C57.1035331,64.4124264 56.5995331,63.8384264 56.5995331,62.8304264 L56.5995331,58.4064264 L55.8855331,58.4064264 C55.6335331,58.4064264 55.4235331,58.1964264 55.4235331,57.9444264 C55.4235331,57.6924264 55.6335331,57.4824264 55.8855331,57.4824264 L56.5995331,57.4824264 L56.5995331,56.0964264 C56.5995331,55.8164264 56.8375331,55.5784264 57.1315331,55.5784264 C57.4115331,55.5784264 57.6495331,55.8164264 57.6495331,56.0964264 L57.6495331,57.4824264 L58.6155331,57.4824264 C58.8675331,57.4824264 59.0915331,57.6924264 59.0915331,57.9444264 C59.0915331,58.1964264 58.8675331,58.4064264 58.6155331,58.4064264 L57.6495331,58.4064264 L57.6495331,62.6064264 C57.6495331,63.1104264 57.8735331,63.4744264 58.3355331,63.4744264 C58.6295331,63.4744264 58.7275331,63.3484264 58.8675331,63.3484264 Z M60.1135331,60.8564264 C60.1135331,58.8964264 61.5135331,57.3144264 63.4455331,57.3144264 C65.4895331,57.3144264 66.6935331,58.9104264 66.6935331,60.6744264 C66.6935331,61.0104264 66.4695331,61.2064264 66.0775331,61.2064264 L61.2195331,61.2064264 C61.3035331,62.4804264 62.1995331,63.5444264 63.6555331,63.5444264 C64.3135331,63.5444264 64.9435331,63.3204264 65.4755331,62.9004264 C65.5455331,62.8584264 65.6295331,62.8444264 65.7135331,62.8444264 C65.9515331,62.8444264 66.1475331,63.0264264 66.1475331,63.2644264 C66.1475331,63.4044264 66.0775331,63.5304264 65.9655331,63.6144264 C65.2935331,64.1324264 64.4955331,64.4124264 63.5575331,64.4124264 C61.5555331,64.4124264 60.1135331,62.9704264 60.1135331,60.8564264 Z M63.4315331,58.1824264 C61.9895331,58.1824264 61.2755331,59.4004264 61.2195331,60.4364264 L65.6575331,60.4364264 C65.6435331,59.4284264 64.9715331,58.1824264 63.4315331,58.1824264 Z M73.8055331,54.8504264 C74.0995331,54.8504264 74.3375331,55.0884264 74.3375331,55.3684264 L74.3375331,63.7824264 C74.3375331,64.0624264 74.0995331,64.3004264 73.8055331,64.3004264 C73.5255331,64.3004264 73.2875331,64.0624264 73.2875331,63.7824264 L73.2875331,63.2364264 C72.7835331,63.9224264 71.9575331,64.4124264 71.0055331,64.4124264 C69.2415331,64.4124264 67.9955331,63.0684264 67.9955331,60.8704264 C67.9955331,58.7144264 69.2275331,57.3144264 71.0055331,57.3144264 C71.9155331,57.3144264 72.7275331,57.7624264 73.2875331,58.5184264 L73.2875331,55.3684264 C73.2875331,55.0884264 73.5255331,54.8504264 73.8055331,54.8504264 Z M71.2575331,63.4744264 C72.0975331,63.4744264 72.9095331,62.9984264 73.2875331,62.4104264 L73.2875331,59.3444264 C72.9095331,58.7564264 72.0975331,58.2524264 71.2575331,58.2524264 C69.8995331,58.2524264 69.0875331,59.3724264 69.0875331,60.8704264 C69.0875331,62.3684264 69.8995331,63.4744264 71.2575331,63.4744264 Z M87.7775331,63.4744264 C87.7915331,63.5444264 87.8195331,63.6284264 87.8195331,63.6984264 C87.8195331,64.0344264 87.5535331,64.3004264 87.2315331,64.3004264 C86.9795331,64.3004264 86.7555331,64.1464264 86.6715331,63.9224264 L85.9995331,62.1724264 L81.1975331,62.1724264 L80.5255331,63.9224264 C80.4555331,64.1464264 80.2315331,64.3004264 79.9795331,64.3004264 C79.6435331,64.3004264 79.3775331,64.0344264 79.3775331,63.7124264 C79.3775331,63.6424264 79.4055331,63.5584264 79.4335331,63.4744264 L82.6535331,55.4944264 C82.8075331,55.1164264 83.1715331,54.8504264 83.6055331,54.8504264 C84.0395331,54.8504264 84.4035331,55.1164264 84.5435331,55.4944264 L87.7775331,63.4744264 Z M81.6035331,61.1364264 L85.6075331,61.1364264 L83.6055331,55.9424264 L81.6035331,61.1364264 Z M93.9795331,57.4264264 C94.2875331,57.4264264 94.5115331,57.6644264 94.5115331,57.9584264 C94.5115331,58.0284264 94.4835331,58.1124264 94.4695331,58.1684264 L92.1175331,63.7964264 C91.9915331,64.1044264 91.6975331,64.3004264 91.3755331,64.3004264 C91.0255331,64.3004264 90.7315331,64.1044264 90.6055331,63.7964264 L88.2535331,58.1684264 C88.2395331,58.0984264 88.2115331,58.0284264 88.2115331,57.9584264 C88.2115331,57.6644264 88.4355331,57.4264264 88.7295331,57.4264264 C88.9535331,57.4264264 89.1495331,57.5664264 89.2195331,57.7484264 L91.3615331,63.0404264 L93.4895331,57.7484264 C93.5595331,57.5664264 93.7695331,57.4264264 93.9795331,57.4264264 Z M98.5015331,57.3144264 C99.9295331,57.3144264 101.119533,57.9584264 101.119533,59.5964264 L101.119533,63.7824264 C101.119533,64.0624264 100.881533,64.3004264 100.587533,64.3004264 C100.307533,64.3004264 100.069533,64.0624264 100.069533,63.7824264 L100.069533,63.4744264 C99.5375331,64.0904264 98.7535331,64.4124264 97.8295331,64.4124264 C96.6815331,64.4124264 95.4635331,63.6424264 95.4635331,62.1724264 C95.4635331,60.6604264 96.6815331,59.9464264 97.8295331,59.9464264 C98.7535331,59.9464264 99.5235331,60.2404264 100.069533,60.8704264 L100.069533,59.6524264 C100.069533,58.7424264 99.3415331,58.2244264 98.3615331,58.2244264 C97.6895331,58.2244264 97.1295331,58.4204264 96.5975331,58.8964264 C96.5275331,58.9384264 96.4295331,58.9804264 96.3175331,58.9804264 C96.0795331,58.9804264 95.8835331,58.7844264 95.8835331,58.5464264 C95.8835331,58.4064264 95.9675331,58.2664264 96.0655331,58.1964264 C96.7515331,57.5944264 97.5355331,57.3144264 98.5015331,57.3144264 Z M98.2075331,63.6564264 C98.9495331,63.6564264 99.6635331,63.3764264 100.069533,62.8164264 L100.069533,61.5424264 C99.6635331,60.9824264 98.9495331,60.7024264 98.2075331,60.7024264 C97.2275331,60.7024264 96.5415331,61.3184264 96.5415331,62.1864264 C96.5415331,63.0404264 97.2275331,63.6564264 98.2075331,63.6564264 Z M103.737533,56.1104264 C103.359533,56.1104264 103.037533,55.8024264 103.037533,55.4104264 C103.037533,55.0184264 103.359533,54.6964264 103.737533,54.6964264 C104.129533,54.6964264 104.451533,55.0184264 104.451533,55.4104264 C104.451533,55.8024264 104.129533,56.1104264 103.737533,56.1104264 Z M103.737533,64.3004264 C103.457533,64.3004264 103.219533,64.0624264 103.219533,63.7824264 L103.219533,57.9444264 C103.219533,57.6644264 103.457533,57.4264264 103.751533,57.4264264 C104.031533,57.4264264 104.269533,57.6644264 104.269533,57.9444264 L104.269533,63.7824264 C104.269533,64.0624264 104.031533,64.3004264 103.737533,64.3004264 Z M106.901533,64.3004264 C106.607533,64.3004264 106.369533,64.0624264 106.369533,63.7824264 L106.369533,55.3684264 C106.369533,55.0884264 106.607533,54.8504264 106.901533,54.8504264 C107.181533,54.8504264 107.419533,55.0884264 107.419533,55.3684264 L107.419533,63.7824264 C107.419533,64.0624264 107.181533,64.3004264 106.901533,64.3004264 Z M110.037533,56.1104264 C109.659533,56.1104264 109.337533,55.8024264 109.337533,55.4104264 C109.337533,55.0184264 109.659533,54.6964264 110.037533,54.6964264 C110.429533,54.6964264 110.751533,55.0184264 110.751533,55.4104264 C110.751533,55.8024264 110.429533,56.1104264 110.037533,56.1104264 Z M110.037533,64.3004264 C109.757533,64.3004264 109.519533,64.0624264 109.519533,63.7824264 L109.519533,57.9444264 C109.519533,57.6644264 109.757533,57.4264264 110.051533,57.4264264 C110.331533,57.4264264 110.569533,57.6644264 110.569533,57.9444264 L110.569533,63.7824264 C110.569533,64.0624264 110.331533,64.3004264 110.037533,64.3004264 Z M116.001533,57.3144264 C117.765533,57.3144264 119.011533,58.7144264 119.011533,60.8704264 C119.011533,63.0684264 117.765533,64.4124264 116.001533,64.4124264 C115.049533,64.4124264 114.237533,63.9224264 113.719533,63.2364264 L113.719533,63.7824264 C113.719533,64.0624264 113.481533,64.3004264 113.201533,64.3004264 C112.907533,64.3004264 112.669533,64.0624264 112.669533,63.7824264 L112.669533,55.3684264 C112.669533,55.0884264 112.907533,54.8504264 113.201533,54.8504264 C113.481533,54.8504264 113.719533,55.0884264 113.719533,55.3684264 L113.719533,58.5184264 C114.251533,57.7624264 115.091533,57.3144264 116.001533,57.3144264 Z M115.735533,63.4744264 C117.107533,63.4744264 117.919533,62.3684264 117.919533,60.8704264 C117.919533,59.3724264 117.107533,58.2524264 115.735533,58.2524264 C114.909533,58.2524264 114.083533,58.7564264 113.719533,59.3444264 L113.719533,62.4104264 C114.083533,62.9984264 114.909533,63.4744264 115.735533,63.4744264 Z M121.237533,56.1104264 C120.859533,56.1104264 120.537533,55.8024264 120.537533,55.4104264 C120.537533,55.0184264 120.859533,54.6964264 121.237533,54.6964264 C121.629533,54.6964264 121.951533,55.0184264 121.951533,55.4104264 C121.951533,55.8024264 121.629533,56.1104264 121.237533,56.1104264 Z M121.237533,64.3004264 C120.957533,64.3004264 120.719533,64.0624264 120.719533,63.7824264 L120.719533,57.9444264 C120.719533,57.6644264 120.957533,57.4264264 121.251533,57.4264264 C121.531533,57.4264264 121.769533,57.6644264 121.769533,57.9444264 L121.769533,63.7824264 C121.769533,64.0624264 121.531533,64.3004264 121.237533,64.3004264 Z M124.401533,64.3004264 C124.107533,64.3004264 123.869533,64.0624264 123.869533,63.7824264 L123.869533,55.3684264 C123.869533,55.0884264 124.107533,54.8504264 124.401533,54.8504264 C124.681533,54.8504264 124.919533,55.0884264 124.919533,55.3684264 L124.919533,63.7824264 C124.919533,64.0624264 124.681533,64.3004264 124.401533,64.3004264 Z M127.537533,56.1104264 C127.159533,56.1104264 126.837533,55.8024264 126.837533,55.4104264 C126.837533,55.0184264 127.159533,54.6964264 127.537533,54.6964264 C127.929533,54.6964264 128.251533,55.0184264 128.251533,55.4104264 C128.251533,55.8024264 127.929533,56.1104264 127.537533,56.1104264 Z M127.537533,64.3004264 C127.257533,64.3004264 127.019533,64.0624264 127.019533,63.7824264 L127.019533,57.9444264 C127.019533,57.6644264 127.257533,57.4264264 127.551533,57.4264264 C127.831533,57.4264264 128.069533,57.6644264 128.069533,57.9444264 L128.069533,63.7824264 C128.069533,64.0624264 127.831533,64.3004264 127.537533,64.3004264 Z M132.647533,63.3484264 C132.913533,63.3484264 133.095533,63.5304264 133.095533,63.7964264 C133.095533,63.9924264 132.997533,64.1184264 132.829533,64.1884264 C132.591533,64.3284264 132.297533,64.4124264 131.877533,64.4124264 C130.883533,64.4124264 130.379533,63.8384264 130.379533,62.8304264 L130.379533,58.4064264 L129.665533,58.4064264 C129.413533,58.4064264 129.203533,58.1964264 129.203533,57.9444264 C129.203533,57.6924264 129.413533,57.4824264 129.665533,57.4824264 L130.379533,57.4824264 L130.379533,56.0964264 C130.379533,55.8164264 130.617533,55.5784264 130.911533,55.5784264 C131.191533,55.5784264 131.429533,55.8164264 131.429533,56.0964264 L131.429533,57.4824264 L132.395533,57.4824264 C132.647533,57.4824264 132.871533,57.6924264 132.871533,57.9444264 C132.871533,58.1964264 132.647533,58.4064264 132.395533,58.4064264 L131.429533,58.4064264 L131.429533,62.6064264 C131.429533,63.1104264 131.653533,63.4744264 132.115533,63.4744264 C132.409533,63.4744264 132.507533,63.3484264 132.647533,63.3484264 Z M133.921533,66.4984264 C133.921533,66.2324264 134.159533,66.0364264 134.425533,66.0364264 C134.467533,66.0364264 134.537533,66.0504264 134.649533,66.0504264 C135.111533,66.0504264 135.419533,65.8964264 135.657533,65.3364264 L136.105533,64.3144264 L133.557533,58.1544264 C133.529533,58.0844264 133.515533,58.0284264 133.515533,57.9584264 C133.515533,57.6644264 133.739533,57.4264264 134.033533,57.4264264 C134.257533,57.4264264 134.453533,57.5664264 134.523533,57.7484264 L136.665533,63.0264264 L138.793533,57.7484264 C138.863533,57.5664264 139.073533,57.4264264 139.283533,57.4264264 C139.591533,57.4264264 139.815533,57.6644264 139.815533,57.9584264 C139.815533,58.0284264 139.801533,58.0984264 139.773533,58.1684264 L136.665533,65.6164264 C136.259533,66.5964264 135.573533,66.9744264 134.677533,66.9884264 C134.579533,66.9884264 134.481533,66.9884264 134.369533,66.9604264 C134.103533,66.9324264 133.921533,66.7364264 133.921533,66.4984264 Z M141.705533,61.6964264 C141.453533,61.6964264 141.257533,61.5004264 141.257533,61.2624264 L141.061533,55.4944264 C141.061533,55.1584264 141.341533,54.8504264 141.705533,54.8504264 C142.055533,54.8504264 142.349533,55.1304264 142.335533,55.4944264 L142.167533,61.2624264 C142.153533,61.5004264 141.957533,61.6964264 141.705533,61.6964264 Z M140.935533,63.6144264 C140.935533,63.1944264 141.285533,62.8444264 141.705533,62.8444264 C142.125533,62.8444264 142.475533,63.1944264 142.475533,63.6144264 C142.475533,64.0204264 142.125533,64.3844264 141.705533,64.3844264 C141.285533,64.3844264 140.935533,64.0204264 140.935533,63.6144264 Z" id="Limited-Availibility" fill="#FFFFFF" transform="translate(87.077533, 60.842426) rotate(45.000000) translate(-87.077533, -60.842426) "></path>
            </g>
        </g>
    </g>
</svg>